<svg xmlns="http://www.w3.org/2000/svg" width="29" height="29" viewBox="0 0 29 29"><g><g><g><g><path fill="#fff" d="M27.612 14.448c0 6.958-5.661 12.619-12.619 12.619S2.374 21.406 2.374 14.448 8.034 1.83 14.993 1.83c6.957 0 12.619 5.66 12.619 12.618zm1.518 0C29.13 6.653 22.788.311 14.993.311 7.198.311.856 6.653.856 14.448c0 7.795 6.342 14.137 14.137 14.137 7.795 0 14.137-6.342 14.137-14.137z"/></g></g><g><g><path fill="#fff" d="M12.776 14.515v8.193c0 .118.095.214.213.214h3.043a.213.213 0 0 0 .214-.214v-8.327h2.206c.11 0 .203-.085.212-.195l.212-2.51a.213.213 0 0 0-.213-.23h-2.418v-1.78c0-.418.339-.756.756-.756h1.7a.214.214 0 0 0 .214-.213v-2.51a.214.214 0 0 0-.214-.213h-2.873a3.052 3.052 0 0 0-3.052 3.053v2.419h-1.521a.213.213 0 0 0-.214.213v2.509c0 .118.096.213.214.213h1.521z"/></g></g></g></g></svg>