<svg xmlns="http://www.w3.org/2000/svg" width="28" height="29" viewBox="0 0 28 29"><g><g><g><g><g><path fill="#fff" d="M26.608 14.448c0 6.945-5.65 12.595-12.595 12.595-6.944 0-12.594-5.65-12.594-12.595S7.069 1.854 14.013 1.854c6.945 0 12.595 5.65 12.595 12.594zm1.518 0c0-7.782-6.331-14.113-14.113-14.113C6.231.335-.1 6.666-.1 14.448c0 7.782 6.331 14.113 14.113 14.113 7.782 0 14.113-6.33 14.113-14.113z"/></g></g><g><g><g><path fill="#fff" d="M7.528 21.028h2.72c.13 0 .235-.105.235-.236v-9.128a.236.236 0 0 0-.235-.236h-2.72a.236.236 0 0 0-.236.236v9.128c0 .13.106.236.236.236zm14.464-5.505c0-2.949-1.575-4.32-3.675-4.32-1.696 0-2.452.933-2.877 1.585v.032h-.02c.005-.01.014-.02.02-.032v-1.124a.236.236 0 0 0-.235-.236H12.49a.235.235 0 0 0-.235.238c.028 1.489 0 7.82-.006 9.126 0 .13.105.236.236.236h2.72c.13 0 .235-.106.235-.236v-5.126c0-.288.022-.573.106-.778.232-.574.755-1.167 1.637-1.167 1.156 0 1.617.88 1.617 2.17v4.901c0 .13.106.236.236.236h2.72c.13 0 .236-.105.236-.236v-5.27z"/></g></g></g></g><g><g><path fill="#fff" d="M7.084 8.498a1.709 1.709 0 1 1 3.417 0 1.709 1.709 0 0 1-3.417 0z"/></g></g></g></g></svg>