<svg xmlns="http://www.w3.org/2000/svg" width="29" height="29" viewBox="0 0 29 29"><g><g><g><g><path fill="#fff" d="M27.291 14.448c0 6.958-5.66 12.619-12.618 12.619S2.055 21.406 2.055 14.448 7.715 1.83 14.673 1.83 27.29 7.49 27.29 14.448zm1.52 0C28.81 6.653 22.467.311 14.672.311S.536 6.653.536 14.448c0 7.795 6.342 14.137 14.137 14.137 7.795 0 14.137-6.342 14.137-14.137z"/></g></g><g><g><g><path fill="#fff" d="M22.798 9.289c-.523.237-1.1.38-1.664.475.268-.045.663-.53.821-.727.241-.3.442-.64.554-1.009.015-.029.026-.065-.003-.087-.037-.014-.06-.007-.088.008a8.516 8.516 0 0 1-1.977.756c-.058.015-.1 0-.137-.036-.057-.065-.111-.126-.173-.177a3.5 3.5 0 0 0-.957-.587 3.336 3.336 0 0 0-1.47-.236 3.511 3.511 0 0 0-1.393.394c-.432.225-.817.539-1.124.918a3.458 3.458 0 0 0-.672 1.345c-.115.473-.106.941-.035 1.42.01.079.004.09-.068.079-2.716-.404-4.967-1.376-6.794-3.458-.08-.09-.122-.09-.188.007-.8 1.198-.411 3.124.588 4.07.133.126.27.252.417.368-.054.01-.718-.061-1.31-.368-.08-.05-.12-.021-.127.069-.007.13.004.248.022.389.153 1.215.995 2.338 2.147 2.777.136.058.288.108.435.133-.262.058-.533.099-1.285.04-.094-.018-.13.029-.094.119.566 1.542 1.787 2 2.701 2.262.123.022.245.022.368.05-.007.012-.015.012-.022.022-.303.462-1.355.807-1.844.978-.891.311-1.862.452-2.803.358-.15-.021-.182-.02-.223 0-.041.026-.005.062.043.101.191.126.386.238.584.346a9.288 9.288 0 0 0 1.873.75c3.366.93 7.158.246 9.685-2.265 1.985-1.972 2.68-4.692 2.68-7.415 0-.106.127-.165.202-.221.516-.388.926-.853 1.312-1.371.086-.117.08-.22.08-.263V9.29c0-.044.006-.03-.061 0z"/></g></g><g><g><path fill="#fff" d="M11.276 21.176c1.395 0 .067 0 0 0"/></g></g><g><g><path fill="#fff" d="M11.276 21.176c-.022.002-.272 0 0 0"/></g></g><g><g><path fill="#fff" d="M11.83 21.19c0-.027.292 0 0 0"/></g></g><g><g><path fill="#fff" d="M17.659 7.682c-.019.015-.043.015-.068 0"/></g></g></g></g></g></svg>