<svg xmlns="http://www.w3.org/2000/svg" width="29" height="29" viewBox="0 0 29 29"><g><g><g><g><path fill="#fff" d="M26.971 14.448c0 6.958-5.66 12.619-12.618 12.619S1.735 21.406 1.735 14.448 7.395 1.83 14.353 1.83s12.618 5.66 12.618 12.618zm1.519 0C28.49 6.653 22.15.311 14.353.311 6.558.311.216 6.653.216 14.448c0 7.796 6.342 14.137 14.137 14.137 7.795 0 14.137-6.341 14.137-14.137z"/></g></g><g><g><g><path fill="#fff" d="M16.877 14.733l-3.756 2.06c-.163.088-.31-.03-.31-.216V12.35c0-.188.152-.306.315-.213l3.781 2.168c.167.095.139.337-.03.428zm5.94-2.429a3.63 3.63 0 0 0-3.63-3.63H9.771a3.63 3.63 0 0 0-3.63 3.63v4.413a3.63 3.63 0 0 0 3.63 3.63h9.416a3.63 3.63 0 0 0 3.63-3.63z"/></g></g></g></g></g></svg>