<svg xmlns="http://www.w3.org/2000/svg" width="61" height="63" viewBox="0 0 61 63"><g><g><g><path fill="#fff" d="M58.35 46.366l-3.053.764c-.37.092-.66.38-.755.751a12.013 12.013 0 0 1-1.326 3.197 1.04 1.04 0 0 0 0 1.064l1.62 2.697-2.087 2.097-2.697-1.62a1.036 1.036 0 0 0-1.064 0 12.022 12.022 0 0 1-3.197 1.325c-.371.094-.66.384-.751.755l-.77 3.05H41.31l-.763-3.052a1.038 1.038 0 0 0-.75-.755 12.024 12.024 0 0 1-3.198-1.326 1.039 1.039 0 0 0-1.064 0l-2.697 1.62-2.096-2.088 1.62-2.697a1.036 1.036 0 0 0 0-1.064 12.023 12.023 0 0 1-1.326-3.197 1.038 1.038 0 0 0-.755-.75l-3.05-.77v-2.958l3.052-.764c.371-.092.661-.38.755-.751.286-1.124.732-2.2 1.326-3.197a1.037 1.037 0 0 0 0-1.064l-1.62-2.697 2.088-2.097 2.697 1.62c.328.197.736.197 1.064 0a12.023 12.023 0 0 1 3.197-1.325c.37-.094.659-.384.751-.755l.77-3.05h2.958l.764 3.052c.092.37.38.661.75.755 1.124.285 2.2.731 3.196 1.325a1.04 1.04 0 0 0 1.066 0l2.696-1.62 2.097 2.089-1.62 2.697a1.039 1.039 0 0 0 0 1.064c.593.996 1.04 2.073 1.325 3.197.094.37.384.659.755.75l3.05.77zm1.288-4.774l-3.253-.813a14.086 14.086 0 0 0-1.077-2.593l1.726-2.877c.245-.408.18-.93-.156-1.267L53.641 30.8c-.337-.337-.86-.4-1.268-.155l-2.876 1.726c-.374-.2-.758-.385-1.149-.553a14.182 14.182 0 0 0-1.452-.525l-.813-3.253a1.036 1.036 0 0 0-1.006-.786h-4.575c-.477 0-.891.324-1.007.786l-.813 3.253c-.898.272-1.767.633-2.593 1.078l-2.876-1.726a1.037 1.037 0 0 0-1.268.155l-3.241 3.238c-.337.337-.401.86-.156 1.267l1.726 2.877a14.036 14.036 0 0 0-1.078 2.593l-3.253.813c-.462.115-.786.53-.786 1.006v4.579c0 .476.324.89.786 1.006l3.253.813c.272.898.633 1.767 1.078 2.593l-1.726 2.877c-.245.408-.181.93.156 1.267l3.237 3.238c.337.336.86.4 1.267.155l2.877-1.726c.826.445 1.695.806 2.593 1.078l.813 3.253c.116.461.53.786 1.007.786h4.578c.476 0 .891-.325 1.006-.786l.813-3.253a14.101 14.101 0 0 0 2.594-1.078l2.876 1.726c.408.245.93.181 1.268-.155l3.237-3.238c.336-.337.4-.86.156-1.267l-1.727-2.877c.445-.826.806-1.695 1.078-2.593l3.253-.813c.462-.115.786-.53.786-1.006v-4.575a1.036 1.036 0 0 0-.778-1.006z"/></g><g><path fill="#fff" d="M42.79 51.111a6.224 6.224 0 1 1 6.224-6.223 6.23 6.23 0 0 1-6.223 6.223zm0-14.522a8.298 8.298 0 0 0-8.297 8.299 8.298 8.298 0 1 0 16.596 0 8.308 8.308 0 0 0-8.298-8.299z"/></g><g><path fill="#fff" d="M47.977 12.732h2.075v16.596h-2.075z"/></g><g><path fill="#fff" d="M2.337 50.074c0-.573.465-1.037 1.037-1.037h12.448v2.074H3.374a1.037 1.037 0 0 1-1.037-1.037zm18.426 0l-2.075 1.037h-.792v-2.074h.792zM2.337 7.546V4.434c0-1.146.93-2.075 2.075-2.075H42.33a4.105 4.105 0 0 0-.576 2.075v3.112c.004.73.203 1.446.576 2.074H4.412a2.075 2.075 0 0 1-2.075-2.074zm2.075 45.64v4.149c0 .573.464 1.037 1.037 1.037h21.783v-2.074H6.486v-3.112h12.448c.16.001.319-.034.463-.104l4.15-2.075a1.037 1.037 0 0 0 0-1.856l-4.15-2.075a1.039 1.039 0 0 0-.463-.114H6.486V11.695h39.417a4.15 4.15 0 0 0 4.149-4.15V5.472c0-.573-.465-1.037-1.037-1.037h-3.112v2.074h2.074v1.038a2.075 2.075 0 0 1-4.149 0V4.434c0-1.146.929-2.075 2.075-2.075h4.149c1.145 0 2.074.93 2.074 2.075V28.29h2.075V4.434a4.15 4.15 0 0 0-4.15-4.15H4.412a4.149 4.149 0 0 0-4.148 4.15v3.112a4.149 4.149 0 0 0 4.149 4.149v35.267H3.374a3.112 3.112 0 0 0 0 6.224z"/></g><g><path fill="#fff" d="M.263 15.844h2.074v20.745H.263z"/></g><g><path fill="#fff" d="M27.174 25.18h-8.848l-6.257-6.258a9.304 9.304 0 0 1 11.048-.43l-2.842 2.842 1.467 1.467 2.962-2.962a9.3 9.3 0 0 1 2.47 5.34zm13.542-8.299v-2.074H27.232c-.275 0-.54.109-.734.304l-1.895 1.895a11.373 11.373 0 0 0-14.775 1.14 1.037 1.037 0 0 0 0 1.467l7.335 7.335c.194.195.458.305.733.306H28.27c.573 0 1.037-.465 1.037-1.037a11.361 11.361 0 0 0-3.14-7.84l1.495-1.496z"/></g><g><path fill="#fff" d="M42.79 14.807h2.075v2.074h-2.074z"/></g><g><path fill="#fff" d="M11.673 30.366h2.074v2.074h-2.074z"/></g><g><path fill="#fff" d="M15.822 30.366h10.372v2.074H15.822z"/></g><g><path fill="#fff" d="M9.598 34.515h16.596v2.074H9.598z"/></g><g><path fill="#fff" d="M32.418 18.956h2.075v2.074h-2.075z"/></g><g><path fill="#fff" d="M36.567 18.956h8.298v2.074h-8.298z"/></g><g><path fill="#fff" d="M32.418 23.105h12.447v2.074H32.418z"/></g><g><path fill="#fff" d="M9.598 38.664h13.485v2.074H9.598z"/></g></g></g></svg>