<svg xmlns="http://www.w3.org/2000/svg" width="300" height="70" viewBox="0 0 300 70"><g><g><g><path fill="#fff" d="M117.563 17.143h-12.434V40.69h-7.07V17.143H85.625v-6.005h31.938z"/></g><g><path fill="#fff" d="M179.437 11.138c3.718 0 6.472.681 8.26 2.043 1.79 1.363 2.684 3.465 2.684 6.303h-7.623c0-.454-.05-.837-.149-1.15a1.502 1.502 0 0 0-.553-.766c-.27-.199-.64-.34-1.107-.425-.469-.086-1.072-.128-1.81-.128h-11.88c-.995 0-1.818.177-2.471.531-.653.356-.98 1.1-.98 2.236 0 .596.085 1.059.256 1.384.17.327.405.568.703.725.298.155.66.255 1.086.297.425.043.893.079 1.405.107l13.074.51c1.674.058 3.143.192 4.407.405 1.262.213 2.313.625 3.15 1.235.838.61 1.47 1.484 1.896 2.62.426 1.135.638 2.682.638 4.64 0 1.59-.17 2.947-.51 4.067-.341 1.122-.902 2.051-1.682 2.79-.782.739-1.81 1.277-3.088 1.618-1.278.34-2.839.511-4.684.511H165.81c-1.874 0-3.45-.17-4.727-.511-1.278-.341-2.307-.858-3.087-1.554-.781-.695-1.335-1.568-1.661-2.619-.327-1.05-.49-2.285-.49-3.705h7.24c0 .738.326 1.334.98 1.788.652.455 1.475.681 2.469.681h11.838c1.561 0 2.725-.197 3.492-.595.767-.398 1.15-1.193 1.15-2.385 0-.54-.071-1-.213-1.384a2.167 2.167 0 0 0-.745-.98c-.355-.269-.852-.475-1.49-.616-.639-.143-1.47-.242-2.492-.3l-11.327-.467c-2.016-.086-3.712-.228-5.089-.426-1.377-.199-2.506-.575-3.385-1.13-.88-.552-1.513-1.362-1.896-2.426-.383-1.065-.574-2.519-.574-4.365 0-1.56.198-2.889.596-3.981.397-1.093 1.022-1.98 1.874-2.663.851-.68 1.95-1.17 3.3-1.468 1.348-.298 2.973-.447 4.876-.447z"/></g><g><path fill="#fff" d="M225.342 17.143h-12.435V40.69h-7.07V17.143h-12.433v-6.005h31.938z"/></g><g><path fill="#fff" d="M289.984 21.869c0 1.107-.25 1.88-.745 2.32-.497.441-1.37.66-2.62.66h-15.287v-6.643h15.117c1.335 0 2.257.221 2.768.661.511.44.767 1.242.767 2.406zm7.367 12.69c0-1.76-.235-3.058-.703-3.897-.468-.836-1.114-1.411-1.938-1.724.938-.597 1.562-1.377 1.874-2.343.312-.964.468-2.284.468-3.96v-2.043c0-1.704-.198-3.158-.596-4.366-.398-1.205-1.036-2.185-1.916-2.938-.88-.751-2.001-1.298-3.363-1.639-1.363-.34-2.997-.511-4.898-.511h-21.93V40.69h7.11v-8.815h13.968c1.646 0 2.86.341 3.641 1.022.78.682 1.17 1.746 1.17 3.194v4.6h7.113z"/></g><g><path fill="#fff" d="M121.337 16.77v-5.733h30.574v5.732z"/></g><g><path fill="#fff" d="M121.338 22.024v18.63h30.573v-5.732h-24.363v-5.254h23.407v-7.644h-22.78z"/></g><g><path fill="#fff" d="M228.344 16.77v-5.733h30.573v5.732z"/></g><g><path fill="#fff" d="M228.344 22.024v18.63h30.573v-5.732h-22.93v-5.254h21.975v-7.644h-22.046z"/></g><g><path fill="#fff" d="M84.554 54.986v-3.344H300v3.344z"/></g><g><path fill="#fff" d="M31.347 35.739c-.428 1.47-.855 2.653-1.739 3.552-.884.9-1.896 1.703-3.266 2.073-1.37.371-2.88.724-4.764.724h-8.046c-1.94 0-3.61-.367-5.008-.767A8.076 8.076 0 0 1 5.1 39.354c-.884-.856-1.844-1.996-2.258-3.337-.414-1.342-.931-2.981-.931-4.836v-1.513h7.165v1.299c0 .856.388 1.59.602 2.204.213.614.746 1.113 1.317 1.498.57.385 1.432.67 2.445.856 1.013.186 2.368.278 3.994.278 1.598 0 2.92-.086 3.934-.257 1.012-.17 1.82-.485 2.406-.94.584-.457.758-1.085.972-1.884.214-.799.095-1.826.095-3.082V11.992h6.688V30.24c0 2.198.246 4.031-.182 5.5zm48.4-26.823c-.02-.082-.044-.161-.065-.242C77.728 1.844 69.342.36 67.012.065 66.108-.006 65.534.05 65.534.05H0v46.632c0 1.794 1.006 7.955 8.757 8.259l1.107.045h.025l3.01-.074v.022l1.408-.019 26.247.077.529-.15v-42.85h7.643v12.42h17.198v-12.42h6.687v30.096h-6.687v-12.42H48.726v25.09l14.096.228h16.955V12.953c0-1.287.092-2.465-.14-3.541-.034-.168.153-.334.11-.496z"/></g><g><path fill="#fff" d="M80.838.05c.784.477 1.677 1.91 2.575 3.344H300V.05z"/></g><g><g><path fill="#fff" d="M1.187 69.619V60.28h1.878v9.338z"/></g><g><path fill="#fff" d="M17.173 60.268h1.893v9.35H17.89v.014l-5.276-6.31v6.297h-1.892V60.28h1.534l4.917 5.79z"/></g><g><path fill="#fff" d="M28.284 61.949h2.066c2.179 0 3.097 1.453 3.14 2.907.043 1.521-.86 3.069-3.14 3.069h-2.066zm2.066-1.668h-3.943v9.338h3.943c3.512 0 5.06-2.388 5.018-4.75-.044-2.307-1.577-4.588-5.018-4.588z"/></g><g><path fill="#fff" d="M51.153 60.294v5.35c0 2.76-1.82 4.175-4.344 4.175-2.41 0-4.46-1.361-4.46-4.175v-5.35h1.879v5.35c0 1.68 1.032 2.574 2.595 2.574 1.563 0 2.452-.974 2.452-2.574v-5.35z"/></g><g><path fill="#fff" d="M64.931 62.536c-.344-.534-1.29-1.041-2.38-1.041-1.405 0-2.079.547-2.079 1.24 0 .814 1.033 1.04 2.237 1.175 2.093.24 4.043.746 4.043 2.974 0 2.081-1.978 2.975-4.215 2.975-2.05 0-3.628-.587-4.373-2.294l1.577-.76c.444 1.026 1.606 1.48 2.825 1.48 1.19 0 2.308-.387 2.308-1.401 0-.88-.99-1.24-2.323-1.374-2.05-.226-3.943-.734-3.943-2.828 0-1.92 2.036-2.708 3.886-2.721 1.563 0 3.183.414 3.943 1.854z"/></g><g><path fill="#fff" d="M76.544 61.882h-3.183v-1.601h8.259v1.601h-3.183v7.737h-1.893z"/></g><g><path fill="#fff" d="M93.29 61.922c1.19 0 1.721.747 1.721 1.494s-.516 1.493-1.72 1.493h-2.883v-2.987zm4.115 7.577l-3.039-3.188c1.907-.36 2.538-1.655 2.538-2.935 0-1.614-1.247-3.082-3.613-3.095-1.592 0-3.184-.013-4.775-.013v9.35h1.892v-3.12h1.821l2.925 3.12h2.251z"/></g><g><path fill="#fff" d="M103.928 69.619V60.28h1.879v9.338z"/></g><g><path fill="#fff" d="M119.685 66.217h-3.727l1.864-3.975zm1.607 3.402h2.064l-4.502-9.338h-2.065l-4.502 9.338h2.05l.86-1.761h5.249z"/></g><g><path fill="#fff" d="M131.987 60.28v7.712h5.162v1.627h-7.055V60.28z"/></g><g><path fill="#fff" d="M159.213 66.217h-3.728l1.865-3.975zm1.606 3.402h2.065l-4.502-9.338h-2.064l-4.503 9.338h2.05l.86-1.761h5.249z"/></g><g><path fill="#fff" d="M177.523 60.294v5.35c0 2.76-1.821 4.175-4.345 4.175-2.408 0-4.459-1.361-4.459-4.175v-5.35h1.878v5.35c0 1.68 1.033 2.574 2.596 2.574 1.562 0 2.452-.974 2.452-2.574v-5.35z"/></g><g><path fill="#fff" d="M187.702 61.882h-3.183v-1.601h8.259v1.601h-3.183v7.737h-1.893z"/></g><g><path fill="#fff" d="M204.376 61.695c2.366 0 3.312 1.76 3.284 3.335-.029 1.534-.918 3.188-3.284 3.188-2.366 0-3.254-1.64-3.297-3.175-.044-1.574.931-3.348 3.297-3.348zm0-1.6c-3.47 0-5.162 2.467-5.162 4.922 0 2.454 1.635 4.815 5.162 4.815s5.119-2.415 5.148-4.828c.028-2.442-1.692-4.91-5.148-4.91z"/></g><g><path fill="#fff" d="M225.395 62.856l-3.269 4.055h-.373l-3.197-4.07v6.791h-1.893v-9.338h2.18l3.14 4.016 3.14-4.016h2.165v9.338h-1.893z"/></g><g><path fill="#fff" d="M241.167 66.217h-3.728l1.864-3.975zm1.605 3.402h2.065l-4.502-9.338h-2.065l-4.502 9.338h2.05l.86-1.761h5.249z"/></g><g><path fill="#fff" d="M252.378 61.882h-3.183v-1.601h8.259v1.601h-3.184v7.737h-1.892z"/></g><g><path fill="#fff" d="M264.35 69.619V60.28h1.878v9.338z"/></g><g><path fill="#fff" d="M278.759 61.695c2.365 0 3.312 1.76 3.283 3.335-.029 1.534-.918 3.188-3.283 3.188-2.366 0-3.255-1.64-3.298-3.175-.043-1.574.932-3.348 3.298-3.348zm0-1.6c-3.47 0-5.162 2.467-5.162 4.922 0 2.454 1.634 4.815 5.162 4.815 3.527 0 5.118-2.415 5.147-4.828.029-2.442-1.692-4.91-5.147-4.91z"/></g><g><path fill="#fff" d="M297.627 60.268h1.892v9.35h-1.175v.014l-5.277-6.31v6.297h-1.893V60.28h1.535l4.918 5.79z"/></g></g></g></g></svg>