<svg xmlns="http://www.w3.org/2000/svg" width="61" height="62" viewBox="0 0 61 62"><g><g><g><path fill="#3a559f" d="M52.07 15.328v2.245h-4.548c-.714 0-1.295.581-1.295 1.295v4.548h-2.245v-4.548c0-.714-.581-1.295-1.296-1.295H38.14v-2.245h4.547c.715 0 1.296-.58 1.296-1.295V9.485h2.245v4.548c0 .714.58 1.295 1.295 1.295zM43.895 7.7A1.7 1.7 0 0 0 42.197 9.4v4.144h-4.145a1.7 1.7 0 0 0-1.698 1.699v2.417a1.7 1.7 0 0 0 1.698 1.699h4.145v4.144a1.7 1.7 0 0 0 1.698 1.699h2.418a1.7 1.7 0 0 0 1.698-1.699v-4.144h4.145a1.7 1.7 0 0 0 1.698-1.699v-2.417a1.7 1.7 0 0 0-1.698-1.699h-4.145V9.4A1.7 1.7 0 0 0 46.313 7.7zm12.218-2.61c-4.001-3.883-9.85-5.365-15.262-3.87a.892.892 0 1 0 .475 1.72c4.805-1.327 9.995-.012 13.545 3.43a13.94 13.94 0 0 1 4.266 9.973 13.936 13.936 0 0 1-4.11 10.033 13.912 13.912 0 0 1-7.973 3.975 14.148 14.148 0 0 1-8.595-1.53 1.62 1.62 0 0 0-1.276-.113L30.66 30.89l2.183-6.522a1.62 1.62 0 0 0-.112-1.276 14.146 14.146 0 0 1-1.523-8.652 13.912 13.912 0 0 1 4.055-8.004 13.964 13.964 0 0 1 2.494-1.949.892.892 0 1 0-.932-1.522c-1.014.62-1.96 1.36-2.813 2.198a15.682 15.682 0 0 0-4.571 9.023 15.947 15.947 0 0 0 1.684 9.69l-2.271 6.788a1.598 1.598 0 0 0 .387 1.645 1.6 1.6 0 0 0 1.646.388l6.788-2.271a15.953 15.953 0 0 0 9.626 1.693 15.684 15.684 0 0 0 8.988-4.48 15.708 15.708 0 0 0 4.633-11.31 15.713 15.713 0 0 0-4.809-11.24zM36.136 44.431a3.753 3.753 0 0 0-5.302 0l-3.444 3.444a.294.294 0 0 1-.254.085c-4.522-.78-7.532-3.23-8.924-4.623-3.228-3.227-4.28-6.972-4.62-8.917a.296.296 0 0 1 .083-.26l3.443-3.445c1.455-1.442 1.438-3.877 0-5.3l-4.964-4.965a3.753 3.753 0 0 0-5.302 0l-3.88 3.88C.23 27.074-.717 31.2.562 34.844c2.15 6.126 5.54 11.532 10.077 16.068a42.35 42.35 0 0 0 8.99 6.853.892.892 0 1 0 .884-1.551 40.559 40.559 0 0 1-8.612-6.565c-4.345-4.345-7.594-9.525-9.655-15.397-1.053-3-.272-6.398 1.988-8.66l3.88-3.88a1.974 1.974 0 0 1 2.777 0l4.965 4.965a1.966 1.966 0 0 1 0 2.777l-3.444 3.444a2.084 2.084 0 0 0-.579 1.83c.377 2.153 1.542 6.298 5.117 9.873 1.542 1.541 4.876 4.256 9.883 5.119a2.08 2.08 0 0 0 1.82-.581l3.444-3.444a1.966 1.966 0 0 1 2.777 0l4.964 4.964c.755.748.76 2.026 0 2.777l-3.88 3.88c-2.26 2.261-5.66 3.041-8.66 1.989a41.871 41.871 0 0 1-3.155-1.255.893.893 0 0 0-.727 1.63c1.075.48 2.183.92 3.291 1.309 3.626 1.273 7.763.34 10.513-2.41l3.88-3.88c1.456-1.443 1.437-3.879 0-5.302z"/></g></g></g></svg>