<svg xmlns="http://www.w3.org/2000/svg" width="47" height="51" viewBox="0 0 47 51"><g><g><g><path fill="#3a559f" d="M16.417 42.119h3.494v-3.493h-3.494zm-1.497.036V38.59c0-.806.656-1.462 1.462-1.462h3.564c.806 0 1.462.656 1.462 1.462v3.565c0 .805-.656 1.461-1.462 1.461h-3.564a1.463 1.463 0 0 1-1.462-1.461zm1.497-9.296h3.494v-3.493h-3.494zm-1.497.036v-3.564c0-.806.656-1.462 1.462-1.462h3.564c.806 0 1.462.656 1.462 1.462v3.564c0 .806-.656 1.462-1.462 1.462h-3.564a1.463 1.463 0 0 1-1.462-1.462zm15.162 9.224v-3.493H26.59v.992a.749.749 0 0 1-1.497 0V38.59c0-.806.656-1.462 1.462-1.462h3.564c.806 0 1.462.656 1.462 1.462v3.565c0 .805-.656 1.461-1.462 1.461h-3.564a1.463 1.463 0 0 1-1.462-1.461.749.749 0 0 1 1.496-.036zm-13.665-18.52h3.494v-3.492h-3.494zm-1.497.037V20.07c0-.806.656-1.461 1.462-1.461h3.564c.806 0 1.462.655 1.462 1.461v3.565c0 .805-.656 1.461-1.462 1.461h-3.564a1.463 1.463 0 0 1-1.462-1.461zm-5.181 5.73H6.245v3.493H9.74zm1.497-.035v3.564c0 .806-.656 1.462-1.462 1.462H6.21a1.463 1.463 0 0 1-1.462-1.462v-3.564c0-.806.656-1.462 1.462-1.462h3.564c.806 0 1.462.656 1.462 1.462zm33.51-22.162c0-1.241-1.01-2.251-2.25-2.251h-6.6v2.2c0 .43.35.78.779.78a.749.749 0 0 1 0 1.497 2.279 2.279 0 0 1-2.277-2.276V4.918H8.702v2.2c0 .43.35.78.78.78a.749.749 0 0 1 0 1.497A2.279 2.279 0 0 1 7.204 7.12V4.918h-3.2a2.253 2.253 0 0 0-2.251 2.25v6.95h8.102a.749.749 0 0 1 0 1.497H1.754V44.36c0 1.24 1.01 2.25 2.25 2.25h29.122a1.71 1.71 0 0 0 1.708-1.709v-4.996a3.21 3.21 0 0 1 3.206-3.206h4.997a1.71 1.71 0 0 0 1.709-1.71V15.616H12.85a.749.749 0 0 1 0-1.497h31.896zm-.954 30.936c-.242.059-.495.09-.755.09H38.04a1.71 1.71 0 0 0-1.709 1.71V44.9c0 .26-.032.513-.09.755zm.954 1.163l-7.741 7.742a3.723 3.723 0 0 1-2.65 1.097H4.005c-.844 0-1.624-.28-2.251-.753v.005A2.248 2.248 0 0 0 4 49.604h38.5a2.248 2.248 0 0 0 2.246-2.245zM8.702 2.276v1.145h1.902V2.276a.78.78 0 0 0-.779-.779h-.344a.78.78 0 0 0-.779.78zm27.194 1.145h1.902V2.276a.78.78 0 0 0-.78-.779h-.343a.78.78 0 0 0-.78.78zm6.6 0a3.752 3.752 0 0 1 3.747 3.748v40.19a3.747 3.747 0 0 1-3.743 3.743H4a3.747 3.747 0 0 1-3.743-3.743V7.169A3.752 3.752 0 0 1 4.005 3.42h3.2V2.276A2.279 2.279 0 0 1 9.481 0h.344a2.279 2.279 0 0 1 2.276 2.276v1.145h22.297V2.276A2.279 2.279 0 0 1 36.675 0h.343a2.279 2.279 0 0 1 2.277 2.276v1.145zM26.588 32.859h3.494v-3.493h-3.494zm-1.497.036v-3.564c0-.806.656-1.462 1.462-1.462h3.564c.806 0 1.462.656 1.462 1.462v3.564c0 .806-.656 1.462-1.462 1.462h-3.564a1.463 1.463 0 0 1-1.462-1.462zM9.74 20.107H6.245V23.6H9.74zm1.497-.036v3.565c0 .805-.656 1.461-1.462 1.461H6.21a1.463 1.463 0 0 1-1.462-1.461V20.07c0-.806.656-1.461 1.462-1.461h3.564c.806 0 1.462.655 1.462 1.461zM9.739 38.626H6.245v3.493H9.74zm1.497-.036v3.565c0 .805-.656 1.461-1.462 1.461H6.21a1.463 1.463 0 0 1-1.462-1.461V38.59c0-.806.656-1.461 1.462-1.461h3.564c.806 0 1.462.655 1.462 1.461zM26.589 23.6h3.494v-3.493h-3.494zm-1.497.036V20.07c0-.806.656-1.461 1.462-1.461h3.564c.806 0 1.462.655 1.462 1.461v3.565c0 .805-.656 1.461-1.462 1.461h-3.564a1.463 1.463 0 0 1-1.462-1.461zm11.67 9.446h3.493v-3.494H36.76zm-1.498.035v-3.564c0-.806.656-1.462 1.462-1.462h3.564c.806 0 1.462.656 1.462 1.462v3.564c0 .806-.656 1.462-1.462 1.462h-3.564a1.463 1.463 0 0 1-1.462-1.462zm1.497-9.517h3.494v-3.493H36.76zm-1.497.036V20.07c0-.806.656-1.461 1.462-1.461h3.564c.806 0 1.462.655 1.462 1.461v3.565c0 .805-.656 1.461-1.462 1.461h-3.564a1.463 1.463 0 0 1-1.462-1.461z"/></g></g></g></svg>