<svg xmlns="http://www.w3.org/2000/svg" width="61" height="60" viewBox="0 0 61 60"><g><g><path fill="#3a559f" d="M56.633 30.924H46v1.933h10.634zm0 3.867H46v1.933h10.634zm0 3.866H46v1.934h10.634zm0 3.867H46v1.934h10.634zm-41.57-21.268H4.43v1.934h10.635zm0 3.867H4.43v1.934h10.635zm0 3.867H4.43v1.934h10.635zm0 3.867H4.43v1.934h10.635zm0 3.867H4.43v1.933h10.635zm0 3.867H4.43v1.933h10.635zM4.43 50.258h1.934v-1.933H4.429zm3.867 0h1.934v-1.933H8.296zm3.867 0h1.934v-1.933h-1.934zm43.503 1.934h-14.5v5.8H19.896v-3.867h19.335v-1.933H5.396a2.904 2.904 0 0 1-2.9-2.9v-2.9h11.308l2.9 1.933h41.863v.967c0 1.598-1.302 2.9-2.9 2.9zM5.396 15.456H18.93v6.284l.387.29c.037.027.266.193.657.428a13.45 13.45 0 0 0-2.977 8.466c0 7.463 6.07 13.534 13.534 13.534s13.535-6.071 13.535-13.534c0-3.11-1.05-6.07-2.977-8.466.39-.235.62-.401.656-.429l.387-.29v-8.346l2.54-1.452a2.61 2.61 0 0 0 1.118-1.319h1.176c.532 0 .966.434.966.967v5.8h-.728l-2.134 7.468-.038.266A3.87 3.87 0 0 0 48.9 28.99a3.87 3.87 0 0 0 3.867-3.867l-2.171-7.734h-.729v-1.933h5.8c1.6 0 2.9 1.301 2.9 2.9v28.035H17.29l-2.9-1.933H2.496V18.356c0-1.599 1.301-2.9 2.9-2.9zM40.2 20.734c-1.105.674-4.512 2.456-9.668 2.456-5.157 0-8.566-1.783-9.667-2.455v-6.237l7.382 4.218a4.61 4.61 0 0 0 4.57 0l7.383-4.218zm1.551 13.09h-.228a2.293 2.293 0 0 1-2.29-2.29 4.217 4.217 0 0 0-3.2-4.098l-.744-.186a5.037 5.037 0 0 1-3.022-2.195c3.055-.22 5.44-.98 7.05-1.688a11.524 11.524 0 0 1 2.816 7.557c0 1.002-.141 1.97-.382 2.9zm-21.208-6.767c1.87 0 3.725.618 5.22 1.74.565.423.902 1.098.902 1.805a2.258 2.258 0 0 1-2.255 2.255c-.706 0-1.38-.337-1.805-.903a7.381 7.381 0 0 0-3.56-2.562 11.47 11.47 0 0 1 .56-2.335zm17.29 12.87a11.545 11.545 0 0 1-7.3 2.597c-2.404 0-4.639-.735-6.492-1.991a5.192 5.192 0 0 1 3.996-1.876c1.33 0 2.508-.847 2.93-2.11a1.15 1.15 0 0 1 1.094-.79h.217c.636 0 1.154.519 1.154 1.154a2.716 2.716 0 0 0 2.713 2.713c.583 0 1.15.11 1.688.304zm1.49-1.455a6.9 6.9 0 0 0-3.178-.781.78.78 0 0 1-.78-.78 3.092 3.092 0 0 0-3.087-3.087h-.217c-1.33 0-2.508.848-2.93 2.111a1.151 1.151 0 0 1-1.094.789c-2.144 0-4.145.96-5.494 2.59a11.563 11.563 0 0 1-3.586-7.868c.824.377 1.553.939 2.1 1.67a4.213 4.213 0 0 0 3.353 1.675c2.31 0 4.189-1.88 4.189-4.19a4.21 4.21 0 0 0-1.675-3.35 10.696 10.696 0 0 0-6.381-2.127h-.045c.358-.619.776-1.206 1.25-1.756 1.838.808 4.681 1.684 8.384 1.746a6.976 6.976 0 0 0 4.69 4.014l.744.185a2.284 2.284 0 0 1 1.733 2.22c0 2.18 1.665 3.958 3.787 4.18a11.628 11.628 0 0 1-1.763 2.759zM16.997 9.655c0-.25.135-.483.352-.607l11.856-6.775a2.684 2.684 0 0 1 2.653 0L43.084 8.69H30.531v1.933h12.553l-11.226 6.415a2.716 2.716 0 0 1-2.653 0l-11.856-6.774a.702.702 0 0 1-.352-.608zm31.664 9.668h.475l1.692 5.922a1.934 1.934 0 0 1-3.858 0zm7.005-5.8h-5.8v-1.934c0-1.599-1.301-2.9-2.9-2.9H45.79a2.617 2.617 0 0 0-1.117-1.32L32.816.596a4.687 4.687 0 0 0-4.571 0L16.39 7.37a2.638 2.638 0 0 0-1.326 2.285c0 .943.508 1.819 1.326 2.286l2.54 1.452v.13H5.396a4.84 4.84 0 0 0-4.833 4.833v30.936a4.84 4.84 0 0 0 4.833 4.833h12.568v3.867h-3.867v1.934h32.869v-1.934h-3.867v-3.867h12.567a4.84 4.84 0 0 0 4.834-4.833V18.356a4.84 4.84 0 0 0-4.834-4.834z"/></g></g></svg>