<svg xmlns="http://www.w3.org/2000/svg" width="77" height="77" viewBox="0 0 77 77"><g><g><g><path fill="#3a559f" d="M12.324 49.266c.624 0 1.13-.505 1.13-1.129V40.36a1.129 1.129 0 0 0-2.258 0v7.778c0 .624.505 1.13 1.128 1.13z"/></g><g><path fill="#3a559f" d="M12.324 33.71c.624 0 1.13-.506 1.13-1.13v-3.125l2.675-1.615a1.129 1.129 0 1 0-1.167-1.932l-3.22 1.944c-.34.204-.546.57-.546.966v3.762c0 .624.505 1.13 1.128 1.13z"/></g><g><path fill="#3a559f" d="M22.06 24.07c.2 0 .4-.052.583-.162l6.514-3.932a1.129 1.129 0 1 0-1.166-1.933l-6.515 3.933a1.129 1.129 0 0 0 .585 2.095z"/></g><g><path fill="#3a559f" d="M47.397 19.982l6.46 3.93a1.128 1.128 0 0 0 1.173-1.929l-6.46-3.93a1.129 1.129 0 0 0-1.173 1.93z"/></g><g><path fill="#3a559f" d="M60.317 27.842l2.673 1.625v3.128a1.129 1.129 0 0 0 2.257 0v-3.762c0-.394-.206-.76-.542-.965l-3.215-1.955a1.129 1.129 0 0 0-1.173 1.929z"/></g><g><path fill="#3a559f" d="M64.118 39.235c-.623 0-1.128.505-1.128 1.129v7.769a1.129 1.129 0 0 0 2.257 0v-7.77c0-.623-.505-1.128-1.129-1.128z"/></g><g><path fill="#3a559f" d="M53.857 64.584l-6.46 3.93a1.129 1.129 0 0 0 1.173 1.929l6.46-3.93a1.129 1.129 0 0 0-1.173-1.929z"/></g><g><path fill="#3a559f" d="M40.937 72.444l-2.63 1.6-2.636-1.591a1.128 1.128 0 1 0-1.166 1.932l3.22 1.944a1.127 1.127 0 0 0 1.17-.002l3.215-1.955a1.129 1.129 0 0 0-1.173-1.928z"/></g><g><path fill="#3a559f" d="M29.157 68.52l-6.514-3.932a1.128 1.128 0 1 0-1.167 1.933l6.515 3.932a1.128 1.128 0 0 0 1.167-1.933z"/></g><g><path fill="#3a559f" d="M38.297 30.513c.623 0 1.128-.506 1.128-1.13v-.866a1.129 1.129 0 0 0-2.257 0v.867c0 .623.505 1.129 1.129 1.129z"/></g><g><path fill="#3a559f" d="M38.297 36.985c.623 0 1.128-.505 1.128-1.129v-.867a1.129 1.129 0 0 0-2.257 0v.867c0 .624.505 1.129 1.129 1.129z"/></g><g><path fill="#3a559f" d="M71.938 67.193a2.469 2.469 0 0 1-2.466-2.466 2.469 2.469 0 0 1 2.466-2.466 2.469 2.469 0 0 1 2.466 2.466 2.469 2.469 0 0 1-2.466 2.466zm-34.77-44.67v1.188a1.129 1.129 0 0 0 2.257 0v-1.18l16.2 9.855-16.2 9.855v-1.322a1.129 1.129 0 0 0-2.257 0v1.33l-16.339-9.863zM35.831 5.577a2.469 2.469 0 0 1 2.465-2.466 2.469 2.469 0 0 1 2.466 2.466 2.469 2.469 0 0 1-2.465 2.466 2.469 2.469 0 0 1-2.466-2.466zM4.655 67.193a2.469 2.469 0 0 1-2.466-2.466 2.469 2.469 0 0 1 2.466-2.466 2.469 2.469 0 0 1 2.466 2.466 2.469 2.469 0 0 1-2.466 2.466zm67.283-7.19a4.703 4.703 0 0 0-3.142 1.201l-3.55-2.027v-3.275a1.129 1.129 0 0 0-2.256 0v1.985l-4.066-2.323.002-.077V33.01c0-.777-.412-1.51-1.075-1.913L39.458 19.91l-.033-.019v-4.757l1.512.92a1.128 1.128 0 0 0 1.173-1.929l-2.685-1.633v-2.328a4.73 4.73 0 0 0 3.595-4.586A4.729 4.729 0 0 0 38.296.854a4.729 4.729 0 0 0-4.723 4.723 4.73 4.73 0 0 0 3.595 4.586v2.34l-2.663 1.608a1.129 1.129 0 1 0 1.166 1.933l1.497-.904v4.748c-.01.006-.02.01-.03.017l-18.54 11.191a2.25 2.25 0 0 0-1.082 1.916v6.948a1.129 1.129 0 0 0 2.257 0v-5.574l17.395 10.5v21.087L19.998 55.61l-.03-.058a1.131 1.131 0 0 0-.195-.25V44.77a1.129 1.129 0 0 0-2.257 0v10.714c0 .055.003.11.007.164l-4.07 2.325v-2.057a1.129 1.129 0 0 0-2.257 0v3.347l-3.399 1.941a4.704 4.704 0 0 0-3.142-1.2 4.729 4.729 0 0 0-4.723 4.723 4.729 4.729 0 0 0 4.723 4.723 4.729 4.729 0 0 0 4.723-4.723c0-.582-.106-1.14-.3-1.654l3.435-1.963 2.449 1.479a1.128 1.128 0 0 0 1.167-1.933l-1.372-.828 4.039-2.308 18.341 11.072c.115.068.233.125.355.172a1.125 1.125 0 0 0 1.611-.003c.122-.047.24-.104.354-.173l7.265-4.42a1.129 1.129 0 1 0-1.173-1.928l-6.124 3.725V44.883l17.244-10.49v21.083l-6.966 4.237a1.129 1.129 0 0 0 1.173 1.929l6.846-4.165 4.032 2.304-1.437.874a1.129 1.129 0 1 0 1.173 1.928l2.503-1.522 3.521 2.012a4.7 4.7 0 0 0-.3 1.654 4.729 4.729 0 0 0 4.724 4.723 4.729 4.729 0 0 0 4.723-4.723 4.729 4.729 0 0 0-4.723-4.724z"/></g></g></g></svg>