<svg xmlns="http://www.w3.org/2000/svg" width="51" height="65" viewBox="0 0 51 65"><g><g><g><path fill="#3a559f" d="M49.326 28.913a.948.948 0 0 0 .947-.947V13.109a2.18 2.18 0 0 0-2.179-2.178H44.38V7.997a2.18 2.18 0 0 0-2.178-2.179h-3.836V2.882c0-1.2-.978-2.178-2.179-2.178H10.043a.948.948 0 0 0 0 1.894h26.143c.157 0 .285.128.285.284v49.422a.285.285 0 0 1-.285.284H2.406a.284.284 0 0 1-.284-.284V2.882c0-.156.127-.284.284-.284h3.849a.948.948 0 0 0 0-1.894h-3.85c-1.2 0-2.178.978-2.178 2.178v49.422c0 1.2.978 2.178 2.179 2.178h3.838v2.935c0 1.202.975 2.178 2.177 2.178h3.715v2.936c0 1.2.977 2.178 2.178 2.178h33.78a2.181 2.181 0 0 0 2.179-2.178V31.754a.947.947 0 0 0-1.895 0v30.777a.284.284 0 0 1-.284.284h-33.78a.284.284 0 0 1-.284-.284v-2.936H42.2a2.18 2.18 0 0 0 2.179-2.178V44.319a.947.947 0 0 0-1.895 0v13.098a.284.284 0 0 1-.284.284H8.421a.284.284 0 0 1-.284-.284v-2.935h28.05c1.2 0 2.178-.977 2.178-2.178V7.712H42.2c.158 0 .284.128.284.285V40.53a.946.946 0 1 0 1.895 0V12.826h3.714c.157 0 .284.127.284.283v14.857c0 .523.424.947.948.947z"/></g><g><path fill="#3a559f" d="M15.847 10.08a3.453 3.453 0 0 1 3.45-3.45 3.453 3.453 0 0 1 3.449 3.45 3.453 3.453 0 0 1-3.45 3.45 3.453 3.453 0 0 1-3.45-3.45zm8.793 0a5.35 5.35 0 0 0-5.344-5.344 5.35 5.35 0 0 0-5.343 5.344 5.35 5.35 0 0 0 5.343 5.343 5.35 5.35 0 0 0 5.344-5.343z"/></g><g><path fill="#3a559f" d="M32.22 11.027a.947.947 0 1 0 0-1.895h-4.441a.947.947 0 0 0 0 1.895z"/></g><g><path fill="#3a559f" d="M10.814 9.132h-4.44a.947.947 0 1 0 0 1.895h4.44a.947.947 0 1 0 0-1.895z"/></g><g><path fill="#3a559f" d="M7.616 19.069c0 .523.424.947.947.947H30.03a.947.947 0 1 0 0-1.895H8.563a.947.947 0 0 0-.947.948z"/></g><g><path fill="#3a559f" d="M30.03 22.714H8.563a.947.947 0 1 0 0 1.894H30.03a.947.947 0 1 0 0-1.894z"/></g><g><path fill="#3a559f" d="M30.03 27.306H8.563a.947.947 0 1 0 0 1.895H30.03a.947.947 0 1 0 0-1.895z"/></g><g><path fill="#3a559f" d="M30.03 31.898H8.563a.947.947 0 0 0 0 1.895H30.03a.947.947 0 1 0 0-1.895z"/></g><g><path fill="#3a559f" d="M30.03 36.491H8.563a.947.947 0 0 0 0 1.894H30.03a.947.947 0 1 0 0-1.894z"/></g><g><path fill="#3a559f" d="M30.44 41.298a.948.948 0 0 0-1.332.132l-4.521 5.514-2.096-2.054a.948.948 0 0 0-1.326 1.352l2.347 2.3c.66.647 1.73.589 2.316-.125l4.745-5.786a.948.948 0 0 0-.132-1.333z"/></g></g></g></svg>