<svg xmlns="http://www.w3.org/2000/svg" width="468" height="224" viewBox="0 0 468 224"><g><g><g><g><g><text dominant-baseline="text-before-edge" style="line-height:27px;font-kerning:normal" fill="#646464" font-family="'Roboto-Thin','Roboto-Thin'" font-size="22" transform="translate(-2 -4)"><tspan font-family="Roboto">Network Activities</tspan></text></g></g></g><g><g><path fill="#248a8f" d="M87.321 47.786a6.302 6.302 0 0 1 8.733 1.768 6.302 6.302 0 0 1-10.503 6.964 6.302 6.302 0 0 1 1.77-8.732z"/></g><g><path fill="#15ab92" d="M174.33 47.786a6.303 6.303 0 0 1 8.733 1.768 6.301 6.301 0 1 1-8.733-1.769z"/></g><g><g><g><g><text dominant-baseline="text-before-edge" style="line-height:14px;font-kerning:normal" fill="#248a8f" font-family="'Roboto-Bold','Roboto-Bold'" font-size="12" transform="translate(101 45)"><tspan font-family="Roboto" font-style="none" font-weight="700">A</tspan></text></g></g><g><g><text dominant-baseline="text-before-edge" style="line-height:14px;font-kerning:normal" fill="#248a8f" font-family="'Roboto-Bold','Roboto-Bold'" font-size="12" transform="translate(109 45)"><tspan font-family="Roboto" font-style="none" font-weight="700">met</tspan></text></g></g></g></g><g><path fill="#1b6372" d="M13.34 47.786a6.303 6.303 0 0 1 8.734 1.768 6.302 6.302 0 1 1-8.733-1.769z"/></g><g><g><g><g><text dominant-baseline="text-before-edge" style="line-height:14px;font-kerning:normal" fill="#1b6372" font-family="'Roboto-Bold','Roboto-Bold'" font-size="12" transform="translate(27 45)"><tspan font-family="Roboto" font-style="none" font-weight="700">Dolor</tspan></text></g></g></g></g><g><g><g><text dominant-baseline="text-before-edge" style="line-height:14px;font-kerning:normal" fill="#15ab92" font-family="'Roboto-Bold','Roboto-Bold'" font-size="12" transform="translate(188 45)"><tspan font-family="Roboto" font-style="none" font-weight="700">Lo</tspan></text></g></g><g><g><text dominant-baseline="text-before-edge" style="line-height:14px;font-kerning:normal" fill="#15ab92" font-family="'Roboto-Bold','Roboto-Bold'" font-size="12" transform="translate(202 45)"><tspan font-family="Roboto" font-style="none" font-weight="700">r</tspan></text></g></g><g><g><text dominant-baseline="text-before-edge" style="line-height:14px;font-kerning:normal" fill="#15ab92" font-family="'Roboto-Bold','Roboto-Bold'" font-size="12" transform="translate(206 45)"><tspan font-family="Roboto" font-style="none" font-weight="700">em</tspan></text></g></g></g></g><g><g><g><g><g><g><text dominant-baseline="text-before-edge" style="line-height:14px;font-kerning:normal" fill="#707070" font-family="'Roboto-Thin','Roboto-Thin'" font-size="12" transform="translate(13 209)"><tspan font-family="Roboto">July 01</tspan></text></g></g></g></g><g><g><g><g><text dominant-baseline="text-before-edge" style="line-height:14px;font-kerning:normal" fill="#707070" font-family="'Roboto-Thin','Roboto-Thin'" font-size="12" transform="translate(14 194)"><tspan font-family="Roboto">0</tspan></text></g></g></g></g><g><g><g><g><text dominant-baseline="text-before-edge" style="line-height:14px;font-kerning:normal" fill="#707070" font-family="'Roboto-Thin','Roboto-Thin'" font-size="12" transform="translate(1 74)"><tspan font-family="Roboto">500</tspan></text></g></g></g></g><g><g><g><g><text dominant-baseline="text-before-edge" style="line-height:14px;font-kerning:normal" fill="#707070" font-family="'Roboto-Thin','Roboto-Thin'" font-size="12" transform="translate(1 98)"><tspan font-family="Roboto">400</tspan></text></g></g></g></g><g><g><g><g><text dominant-baseline="text-before-edge" style="line-height:14px;font-kerning:normal" fill="#707070" font-family="'Roboto-Thin','Roboto-Thin'" font-size="12" transform="translate(1 122)"><tspan font-family="Roboto">300</tspan></text></g></g></g></g><g><g><g><g><text dominant-baseline="text-before-edge" style="line-height:14px;font-kerning:normal" fill="#707070" font-family="'Roboto-Thin','Roboto-Thin'" font-size="12" transform="translate(1 146)"><tspan font-family="Roboto">200</tspan></text></g></g></g></g><g><g><g><g><text dominant-baseline="text-before-edge" style="line-height:14px;font-kerning:normal" fill="#707070" font-family="'Roboto-Thin','Roboto-Thin'" font-size="12" transform="translate(1 170)"><tspan font-family="Roboto">100</tspan></text></g></g></g></g><g><g><g><g><text dominant-baseline="text-before-edge" style="line-height:14px;font-kerning:normal" fill="#707070" font-family="'Roboto-Thin','Roboto-Thin'" font-size="12" transform="translate(82 209)"><tspan font-family="Roboto">July 02</tspan></text></g></g></g></g><g><g><g><g><text dominant-baseline="text-before-edge" style="line-height:14px;font-kerning:normal" fill="#707070" font-family="'Roboto-Thin','Roboto-Thin'" font-size="12" transform="translate(430 209)"><tspan font-family="Roboto">July 07</tspan></text></g></g></g></g><g><g><g><g><text dominant-baseline="text-before-edge" style="line-height:14px;font-kerning:normal" fill="#707070" font-family="'Roboto-Thin','Roboto-Thin'" font-size="12" transform="translate(152 209)"><tspan font-family="Roboto">July 03</tspan></text></g></g></g></g><g><g><g><g><text dominant-baseline="text-before-edge" style="line-height:14px;font-kerning:normal" fill="#707070" font-family="'Roboto-Thin','Roboto-Thin'" font-size="12" transform="translate(221 209)"><tspan font-family="Roboto">July 04</tspan></text></g></g></g></g><g><g><g><g><text dominant-baseline="text-before-edge" style="line-height:14px;font-kerning:normal" fill="#707070" font-family="'Roboto-Thin','Roboto-Thin'" font-size="12" transform="translate(360 209)"><tspan font-family="Roboto">July 06</tspan></text></g></g></g></g><g><g><g><g><text dominant-baseline="text-before-edge" style="line-height:14px;font-kerning:normal" fill="#707070" font-family="'Roboto-Thin','Roboto-Thin'" font-size="12" transform="translate(291 209)"><tspan font-family="Roboto">July 05</tspan></text></g></g></g></g><g><path fill="none" stroke="#4d4d4d" stroke-miterlimit="20" d="M31.8 79.117v122.615h418.645v0"/></g><g><path fill="none" stroke="#4d4d4d" stroke-miterlimit="20" d="M310.098 201.732v6.747"/></g><g><path fill="none" stroke="#4d4d4d" stroke-miterlimit="20" d="M379.66 201.732v6.747"/></g><g><path fill="none" stroke="#4d4d4d" stroke-miterlimit="20" d="M449.222 201.732v6.747"/></g><g><path fill="none" stroke="#4d4d4d" stroke-miterlimit="20" d="M101.412 201.732v6.747"/></g><g><path fill="none" stroke="#4d4d4d" stroke-miterlimit="20" d="M31.85 201.732v6.747"/></g><g><path fill="none" stroke="#4d4d4d" stroke-miterlimit="20" d="M31.703 201.586h-6.746"/></g><g><path fill="none" stroke="#4d4d4d" stroke-miterlimit="20" d="M31.703 153.067h-6.746"/></g><g><path fill="none" stroke="#4d4d4d" stroke-miterlimit="20" d="M31.703 104.549h-6.746"/></g><g><path fill="none" stroke="#4d4d4d" stroke-miterlimit="20" d="M31.703 128.808h-6.746"/></g><g><path fill="none" stroke="#4d4d4d" stroke-miterlimit="20" d="M31.703 177.326h-6.746"/></g><g><path fill="none" stroke="#4d4d4d" stroke-miterlimit="20" d="M31.703 80.29h-6.746"/></g><g><path fill="none" stroke="#4d4d4d" stroke-miterlimit="20" d="M170.974 201.732v6.747"/></g><g><path fill="none" stroke="#4d4d4d" stroke-miterlimit="20" d="M240.536 201.732v6.747"/></g></g></g><g><g><path fill="#1b6372" d="M448.911 135.982s-20.612-8.5-30.748-8.5c-10.137 0-8.948-17.256-20.038-17.256-11.089 0-7.839 15.044-14.428 15.044S371.64 95.815 362.97 95.815s-9.406 5.279-13.675 10.15c-4.269 4.869-8.912 11.096-15.396 11.096-6.485 0-6.163 10.374-11.967 9.88-10.018-.85-13.618 6.707-19.564 6.707s-13.181-9.66-19.805-8.415c-6.625 1.245-13.775-30.612-20.614-30.612-5.069 0-5.576 4.484-11.66 4.484-6.789 0-5.745 15.964-11.45 15.964-4.866 0-12.572-29.599-18.601-29.599-9.514 0-15.16 35.556-24.554 35.556-5.406 0-7.233-11.236-16.554-11.236-9.321 0-31.053 23.941-41.46 23.319-10.407-.623-6.965-21.086-22.133-21.086-15.167 0-14.66-18.626-29.865-18.626-15.206 0-36.77 12.212-53.864 12.212v95.851H448.91z"/></g><g><path fill="#248a8f" d="M448.911 167.464s-30.492-7.715-56.766-23.768c-10.061-6.148-20.95-31.673-29.498-31.673-8.01 0-11.726 20.463-22.133 21.086-10.406.622-22.03 20.705-30.14 27.848-8.11 7.143-10.218 3.37-13.62 5.684-3.403 2.314-4.965.42-10.371.42-9.394 0-18.923-52.08-28.436-52.08-6.03 0-13.735 18.128-18.602 18.128-5.704 0-4.66-6.006-11.45-6.006-9.83 0-12.808 29.357-19.647 29.357-6.838 0-6.001-6.694-12.626-7.94-6.624-1.244-13.86-14.872-19.806-14.872-5.946 0-9.546 19.315-19.563 20.166-5.804.492-5.482 9.15-11.967 9.15s-8.059-15.115-15.396-15.115c-7.338 0-10.966-16.14-18.138-16.14-7.17 0-10.369 5.14-13.764 2.49-3.394-2.65-11.827-23.973-16.929-23.973-9.573 0-27.028 33.477-35.215 33.477-9.587 0-13.036 15.35-13.036 15.35v42.408H448.91z"/></g><g><path fill="#15ab92" d="M31.808 187.11c17.094 0 38.658-9.08 53.864-9.08 15.205 0 14.698-2.485 29.865-2.485 15.168 0 11.726 3.067 22.133 2.87 10.407-.197 32.139-10.078 41.46-10.078 9.321 0 6.221 10.87 19.36 10.87 13.14 0 8.776-4.221 18.29-4.221 6.029 0 17.193 9.134 22.06 9.134 5.704 0 4.66-3.806 11.449-3.806 9.83 0 12.809-9.283 19.647-9.283 6.84 0 6.002 2.117 12.627 2.51 6.624.394 13.86 4.704 19.805 4.704 5.946 0 9.546-6.108 19.564-6.377 5.804-.155 5.482-2.893 11.967-2.893 6.484 0 7.899 4.78 15.396 4.78 7.497 0 7.404-10.593 16.073-10.593 8.67 0 11.74 26.293 18.33 26.293 6.588 0 3.338-3.804 14.427-3.804 11.09 0 9.9-5.457 20.038-5.457 10.136 0 30.748-2.688 30.748-2.688v23.955H31.808z"/></g></g><g><g><path fill="#e0ddda" d="M403.303 54.373h-80.18a2.502 2.502 0 0 0-2.494 2.495v38.393a2.503 2.503 0 0 0 2.495 2.495h36.136l3.968 4.8 3.968-4.8h36.107a2.503 2.503 0 0 0 2.495-2.495V56.868a2.502 2.502 0 0 0-2.495-2.495z"/></g><g><g><g><text dominant-baseline="text-before-edge" style="line-height:14px;font-kerning:normal" fill="#248a8f" font-family="'Roboto-Thin','Roboto-Thin'" font-size="12" transform="translate(330 60)"><tspan font-family="Roboto">Dolor</tspan></text></g></g><g><g><text dominant-baseline="text-before-edge" style="line-height:14px;font-kerning:normal" fill="#248a8f" font-family="'Roboto-Thin','Roboto-Thin'" font-size="12" transform="translate(330 75)"><tspan font-family="Roboto">Visi</tspan></text></g></g><g><g><text dominant-baseline="text-before-edge" style="line-height:14px;font-kerning:normal" fill="#248a8f" font-family="'Roboto-Thin','Roboto-Thin'" font-size="12" transform="translate(348 75)"><tspan font-family="Roboto">t</tspan></text></g></g><g><g><text dominant-baseline="text-before-edge" style="line-height:14px;font-kerning:normal" fill="#248a8f" font-family="'Roboto-Thin','Roboto-Thin'" font-size="12" transform="translate(352 75)"><tspan font-family="Roboto">ors:</tspan></text></g></g><g><g><text dominant-baseline="text-before-edge" style="line-height:14px;font-kerning:normal" fill="#248a8f" font-family="'Roboto-Bold','Roboto-Bold'" font-size="12" transform="translate(371 75)"><tspan font-family="Roboto" font-style="none" font-weight="700">340</tspan></text></g></g></g><g><path fill="#e0ddda" d="M355.43 110.476a7.92 7.92 0 1 1 15.84 0 7.92 7.92 0 0 1-15.84 0z"/></g><g><path fill="#248a8f" d="M358.364 110.476a4.987 4.987 0 1 1 9.973 0 4.987 4.987 0 0 1-9.973 0z"/></g></g><g><g><g><g><text dominant-baseline="text-before-edge" style="line-height:11px;font-kerning:normal" fill="#15ab92" font-family="'Roboto-Thin','Roboto-Thin'" font-size="9" transform="translate(286 5)"><tspan font-family="Roboto">T</tspan></text></g></g><g><g><text dominant-baseline="text-before-edge" style="line-height:11px;font-kerning:normal" fill="#15ab92" font-family="'Roboto-Thin','Roboto-Thin'" font-size="9" transform="translate(291 5)"><tspan font-family="Roboto">O</tspan></text></g></g><g><g><text dominant-baseline="text-before-edge" style="line-height:10px;font-kerning:normal" fill="#15ab92" font-family="'Roboto-Thin','Roboto-Thin'" font-size="8" transform="translate(297 5)"><tspan font-family="Roboto">D</tspan></text></g></g><g><g><text dominant-baseline="text-before-edge" style="line-height:11px;font-kerning:normal" fill="#15ab92" font-family="'Roboto-Thin','Roboto-Thin'" font-size="9" transform="translate(303 5)"><tspan font-family="Roboto">A</tspan></text></g></g><g><g><text dominant-baseline="text-before-edge" style="line-height:11px;font-kerning:normal" fill="#15ab92" font-family="'Roboto-Thin','Roboto-Thin'" font-size="9" transform="translate(309 5)"><tspan font-family="Roboto">Y</tspan></text></g></g></g><g><g><g><g><text dominant-baseline="text-before-edge" style="line-height:11px;font-kerning:normal" fill="#7d808e" font-family="'Roboto-Thin','Roboto-Thin'" font-size="9" transform="translate(337 5)"><tspan font-family="Roboto">WEEK</tspan></text></g></g></g></g><g><g><g><g><text dominant-baseline="text-before-edge" style="line-height:11px;font-kerning:normal" fill="#7d808e" font-family="'Roboto-Thin','Roboto-Thin'" font-size="9" transform="translate(382 5)"><tspan font-family="Roboto">MO</tspan></text></g></g><g><g><text dominant-baseline="text-before-edge" style="line-height:11px;font-kerning:normal" fill="#7d808e" font-family="'Roboto-Thin','Roboto-Thin'" font-size="9" transform="translate(397 5)"><tspan font-family="Roboto">N</tspan></text></g></g><g><g><text dominant-baseline="text-before-edge" style="line-height:11px;font-kerning:normal" fill="#7d808e" font-family="'Roboto-Thin','Roboto-Thin'" font-size="9" transform="translate(403 5)"><tspan font-family="Roboto">TH</tspan></text></g></g></g></g><g><g><g><g><text dominant-baseline="text-before-edge" style="line-height:11px;font-kerning:normal" fill="#7d808e" font-family="'Roboto-Thin','Roboto-Thin'" font-size="9" transform="translate(437 5)"><tspan font-family="Roboto">YEAR</tspan></text></g></g></g></g><g><path fill="none" stroke="#15ab92" stroke-miterlimit="20" stroke-width=".5" d="M284.149 19.014h32.292"/></g></g></g></g></svg>