<svg xmlns="http://www.w3.org/2000/svg" width="332" height="215" viewBox="0 0 332 215"><g><g><g><g><g><path fill="#616161" d="M4.266 181.856v.53H1.368v-.53H2.58v-3.66c-.049.067-.129.141-.238.22-.108.081-.23.155-.364.223a2.655 2.655 0 0 1-.415.171 1.282 1.282 0 0 1-.376.069v-.565c.13 0 .274-.037.431-.11a3.06 3.06 0 0 0 .447-.257c.14-.098.257-.188.355-.274.096-.086.149-.142.16-.171h.6v4.354z"/></g><g><path fill="#616161" d="M8.53 180.718c-.077.25-.183.466-.32.645a1.361 1.361 0 0 1-1.119.56c-.235 0-.448-.047-.639-.145a1.414 1.414 0 0 1-.492-.415 2.013 2.013 0 0 1-.32-.645 2.792 2.792 0 0 1-.116-.839c0-.308.038-.587.117-.838.075-.25.183-.467.319-.645.137-.18.301-.32.492-.42.19-.1.404-.15.638-.15.227 0 .438.05.628.15.19.1.356.24.491.42.138.178.244.395.32.645.08.25.118.53.118.838 0 .307-.038.588-.117.839zm.545-1.877a2.603 2.603 0 0 0-.45-.823c-.19-.23-.417-.41-.68-.542a1.879 1.879 0 0 0-.854-.197c-.31 0-.595.066-.856.197-.263.131-.49.313-.68.542a2.57 2.57 0 0 0-.45.823c-.109.315-.162.662-.162 1.038 0 .377.053.724.163 1.04.107.316.257.59.448.821.19.232.418.41.681.54.261.126.546.19.856.19.307 0 .592-.064.854-.19a2.01 2.01 0 0 0 .68-.54c.191-.23.34-.505.45-.822.107-.315.162-.662.162-1.039 0-.376-.055-.723-.162-1.038z"/></g><g><path fill="#616161" d="M14.248 182.13a.73.73 0 0 0 .33-.074.893.893 0 0 0 .441-1.16.968.968 0 0 0-.184-.285.8.8 0 0 0-.915-.189.912.912 0 0 0-.51.818c0 .25.082.463.245.631.163.172.36.26.593.26zm0 .341a1.28 1.28 0 0 1-.9-.355 1.198 1.198 0 0 1-.373-.876 1.179 1.179 0 0 1 .372-.868c.116-.113.251-.198.405-.261.156-.063.32-.095.496-.095a1.311 1.311 0 0 1 .903.356 1.178 1.178 0 0 1 .372.868 1.197 1.197 0 0 1-.372.876 1.287 1.287 0 0 1-.903.355zm-2.873-4.123a.826.826 0 0 0 .601-.27.917.917 0 0 0 .182-.28.904.904 0 0 0 .063-.339.884.884 0 0 0-.531-.82.755.755 0 0 0-.64.003.865.865 0 0 0-.27.196.916.916 0 0 0-.245.621.951.951 0 0 0 .253.628.821.821 0 0 0 .266.193.773.773 0 0 0 .321.068zm-1.07 3.807l2.395-2.908 2.319-2.969.298.257-2.379 2.908-2.333 2.977zm1.07-3.473a1.294 1.294 0 0 1-.903-.354 1.18 1.18 0 0 1-.272-.39 1.143 1.143 0 0 1-.1-.479 1.19 1.19 0 0 1 .372-.868c.117-.112.252-.2.406-.265.154-.066.32-.099.497-.099a1.287 1.287 0 0 1 1.18.753c.068.148.103.308.103.48 0 .17-.035.33-.103.478a1.237 1.237 0 0 1-.68.65 1.327 1.327 0 0 1-.5.094z"/></g></g><g><g><path fill="#616161" d="M.333 142.695c0-.211.018-.417.056-.62.037-.203.108-.398.214-.586.105-.188.25-.37.436-.543a3.29 3.29 0 0 1 .713-.492c.154-.08.322-.162.501-.244.18-.083.346-.175.5-.278.154-.103.28-.216.381-.342.1-.125.15-.274.15-.445a.844.844 0 0 0-.286-.616 1.045 1.045 0 0 0-.35-.205c-.14-.05-.301-.077-.484-.077-.19 0-.36.027-.51.081a1.875 1.875 0 0 0-.397.194 1.553 1.553 0 0 0-.288.233c-.075.083-.135.15-.174.202l-.386-.42.198-.188c.096-.09.223-.182.381-.273.156-.091.342-.172.555-.244.214-.071.455-.108.724-.108.257 0 .485.037.688.108.202.072.375.17.518.295a1.26 1.26 0 0 1 .436.95c0 .24-.056.445-.168.62-.11.173-.245.323-.407.449-.16.125-.322.228-.49.308l-.415.196a5.162 5.162 0 0 0-.642.334c-.17.11-.31.22-.42.333-.107.116-.188.24-.244.378a2.01 2.01 0 0 0-.115.47h2.995v.53z"/></g><g><path fill="#616161" d="M8.531 141.027a2.055 2.055 0 0 1-.32.646 1.367 1.367 0 0 1-1.12.56 1.377 1.377 0 0 1-1.13-.56 2.055 2.055 0 0 1-.32-.646 2.828 2.828 0 0 1-.116-.838c0-.308.038-.588.116-.839.076-.25.184-.466.32-.644.137-.181.301-.32.493-.42.19-.1.402-.15.636-.15.229 0 .438.05.63.15.19.1.354.239.49.42.137.178.245.395.321.644.078.251.117.53.117.839 0 .308-.04.588-.117.838zm.544-1.878a2.59 2.59 0 0 0-.45-.82 2.093 2.093 0 0 0-.679-.544 1.9 1.9 0 0 0-.856-.197 1.9 1.9 0 0 0-.855.197 2.105 2.105 0 0 0-.68.543c-.19.231-.34.505-.45.82a3.17 3.17 0 0 0-.16 1.04c0 .377.051.723.16 1.04.11.316.26.59.45.821.191.23.418.41.68.539.263.128.548.192.855.192.308 0 .593-.064.856-.192a2.06 2.06 0 0 0 .68-.539c.192-.231.34-.505.45-.82.106-.318.162-.664.162-1.04a3.23 3.23 0 0 0-.163-1.04z"/></g><g><path fill="#616161" d="M14.25 142.438c.121 0 .23-.023.329-.072a.935.935 0 0 0 .266-.192.904.904 0 0 0 .176-.967.955.955 0 0 0-.185-.287.833.833 0 0 0-.269-.193.784.784 0 0 0-.91.201.889.889 0 0 0-.245.621c0 .251.081.462.244.633.162.17.36.256.595.256zm0 .342a1.301 1.301 0 0 1-.902-.354 1.213 1.213 0 0 1-.274-1.356c.067-.148.157-.279.274-.39a1.29 1.29 0 0 1 .903-.355 1.314 1.314 0 0 1 .902.355c.116.111.207.242.273.39.065.148.099.308.099.48a1.202 1.202 0 0 1-.372.876c-.118.11-.253.197-.407.26a1.283 1.283 0 0 1-.495.094zm-2.873-4.123c.119 0 .23-.023.332-.072a.842.842 0 0 0 .269-.196.893.893 0 0 0 .244-.62.877.877 0 0 0-.255-.634.908.908 0 0 0-.275-.189.777.777 0 0 0-.641.005.911.911 0 0 0-.27.197.909.909 0 0 0 .01 1.249.767.767 0 0 0 .585.26zm-1.07 3.807l2.396-2.908 2.318-2.97.299.259-2.379 2.907-2.335 2.978zm1.07-3.473a1.298 1.298 0 0 1-.902-.355 1.177 1.177 0 0 1-.372-.867 1.17 1.17 0 0 1 .372-.87c.116-.11.25-.199.406-.264.154-.066.318-.098.496-.098a1.308 1.308 0 0 1 .906.362c.114.112.205.242.274.39.067.148.102.307.102.48 0 .17-.035.33-.102.478-.069.15-.16.278-.274.39-.115.11-.25.198-.407.26a1.334 1.334 0 0 1-.5.094z"/></g></g><g><g><path fill="#616161" d="M2.813 100.986c.376.062.677.233.902.513.224.279.337.623.337 1.034 0 .257-.047.493-.141.706a1.506 1.506 0 0 1-.402.547 1.832 1.832 0 0 1-.623.35 2.509 2.509 0 0 1-.81.125A2.38 2.38 0 0 1 .939 104a1.751 1.751 0 0 1-.735-.722l.403-.368c.119.25.302.45.547.598.245.148.553.223.924.223.428 0 .764-.104 1.009-.313.246-.207.368-.506.368-.893 0-.394-.128-.704-.385-.933-.256-.228-.626-.342-1.112-.342h-.214v-.496h.232c.439 0 .774-.102 1.008-.308a1.01 1.01 0 0 0 .352-.794 1.04 1.04 0 0 0-.094-.45.946.946 0 0 0-.262-.326 1.18 1.18 0 0 0-.393-.2 1.74 1.74 0 0 0-.492-.07 1.66 1.66 0 0 0-.86.22 1.39 1.39 0 0 0-.56.603l-.376-.36c.068-.148.166-.283.29-.407.126-.122.268-.226.428-.311a2.448 2.448 0 0 1 1.13-.274c.262 0 .503.037.722.11.22.075.408.18.57.313.158.134.283.296.372.482a1.59 1.59 0 0 1 .055 1.117 1.308 1.308 0 0 1-.577.727c-.14.083-.3.137-.475.16z"/></g><g><path fill="#616161" d="M8.53 101.335a2.021 2.021 0 0 1-.32.647 1.37 1.37 0 0 1-1.119.559c-.235 0-.448-.048-.639-.145a1.433 1.433 0 0 1-.492-.414 2.018 2.018 0 0 1-.32-.647 2.778 2.778 0 0 1-.116-.837c0-.309.038-.588.117-.839.075-.25.183-.466.319-.646.137-.179.301-.32.492-.418.19-.1.404-.15.639-.15.226 0 .437.05.627.15.19.099.356.24.491.418.138.18.244.396.321.646.079.251.117.53.117.839 0 .307-.038.587-.117.837zm.545-1.877a2.6 2.6 0 0 0-.45-.822c-.19-.23-.417-.41-.68-.542a1.87 1.87 0 0 0-.854-.197c-.31 0-.595.065-.856.197a2.09 2.09 0 0 0-.68.542 2.567 2.567 0 0 0-.45.822c-.109.317-.162.663-.162 1.04 0 .376.053.721.163 1.04.107.316.257.589.448.82.19.23.418.41.681.54.261.128.546.191.856.191.308 0 .592-.063.854-.191.263-.13.49-.31.68-.54.191-.231.34-.504.45-.82.107-.319.162-.664.162-1.04 0-.377-.055-.723-.162-1.04z"/></g><g><path fill="#616161" d="M14.248 102.747a.788.788 0 0 1-.593-.256.882.882 0 0 1-.244-.633c0-.12.02-.233.062-.339a.935.935 0 0 1 .447-.477.728.728 0 0 1 .328-.075c.108 0 .215.024.317.07.102.045.191.11.27.192a.964.964 0 0 1 .184.286.931.931 0 0 1 .005.684.884.884 0 0 1-.447.476.73.73 0 0 1-.33.072zm.497.249c.154-.063.29-.15.406-.261a1.207 1.207 0 0 0 .372-.877c0-.172-.033-.33-.099-.479a1.216 1.216 0 0 0-.273-.39 1.283 1.283 0 0 0-.406-.26 1.283 1.283 0 0 0-.497-.094 1.286 1.286 0 0 0-1.176.744 1.204 1.204 0 0 0 .274 1.355 1.293 1.293 0 0 0 .902.355c.177 0 .343-.03.497-.093zm-3.37-4.03a.761.761 0 0 1-.321-.068.832.832 0 0 1-.266-.192.971.971 0 0 1-.183-.287.902.902 0 0 1 .444-1.158.742.742 0 0 1 .641-.006.917.917 0 0 1 .275.19.87.87 0 0 1 .255.632.894.894 0 0 1-.512.817.752.752 0 0 1-.333.073zm-.77 4.071l2.333-2.976 2.379-2.908-.298-.257-2.319 2.97-2.394 2.907zm1.27-3.83c.156-.064.292-.15.406-.263a1.29 1.29 0 0 0 .274-.389 1.13 1.13 0 0 0 .103-.478c0-.172-.035-.33-.103-.479a1.323 1.323 0 0 0-.274-.39 1.302 1.302 0 0 0-1.403-.266 1.4 1.4 0 0 0-.406.266 1.204 1.204 0 0 0 .406 1.998c.154.063.32.095.497.095.176 0 .343-.032.5-.095z"/></g></g><g><g><path fill="#616161" d="M2.908 59.343v3.003H.615zm.53 5.055v-1.522h.753v-.53h-.753v-3.918h-.403L0 62.363v.513h2.856v1.522z"/></g><g><path fill="#616161" d="M8.531 61.644a2.05 2.05 0 0 1-.32.646c-.137.18-.301.318-.491.416-.192.096-.401.144-.63.144a1.39 1.39 0 0 1-.636-.144 1.428 1.428 0 0 1-.494-.416 2.017 2.017 0 0 1-.32-.646 2.788 2.788 0 0 1-.116-.838c0-.307.038-.588.117-.838.075-.25.183-.466.319-.646.137-.18.301-.32.494-.42.189-.1.402-.149.637-.149.228 0 .437.05.629.15.19.1.354.239.49.42.137.179.245.394.321.645.078.25.116.53.116.838 0 .308-.038.587-.116.838zm.544-1.878a2.58 2.58 0 0 0-.45-.82 2.07 2.07 0 0 0-.68-.544 1.879 1.879 0 0 0-.854-.196c-.308 0-.595.065-.856.196-.263.132-.49.313-.68.543-.19.232-.342.505-.45.82a3.17 3.17 0 0 0-.162 1.04c0 .377.053.724.163 1.04a2.6 2.6 0 0 0 .448.821c.19.231.418.411.681.54.261.128.548.192.856.192.307 0 .592-.064.854-.192.263-.129.49-.31.68-.54.193-.231.34-.505.45-.821.107-.316.162-.663.162-1.04a3.23 3.23 0 0 0-.162-1.04z"/></g><g><path fill="#616161" d="M14.25 63.056a.792.792 0 0 1-.595-.257.885.885 0 0 1-.243-.633c0-.12.022-.232.063-.337a.893.893 0 0 1 .446-.48.76.76 0 0 1 .645-.004.82.82 0 0 1 .27.193.957.957 0 0 1 .185.286.9.9 0 0 1-.442 1.16.747.747 0 0 1-.328.072zm.496.248c.154-.063.29-.15.405-.261a1.203 1.203 0 0 0 .373-.876 1.178 1.178 0 0 0-.373-.87 1.283 1.283 0 0 0-.9-.355 1.296 1.296 0 0 0-.903.356 1.178 1.178 0 0 0-.373.869 1.203 1.203 0 0 0 .373.876 1.29 1.29 0 0 0 .903.355c.177 0 .343-.032.495-.094zm-3.37-4.03a.762.762 0 0 1-.32-.067.934.934 0 0 1-.517-.822.89.89 0 0 1 .512-.817.76.76 0 0 1 .64-.004.87.87 0 0 1 .463.47.882.882 0 0 1 .068.351.888.888 0 0 1-.513.817.758.758 0 0 1-.332.073zm-.77 4.073l2.334-2.978 2.38-2.907-.3-.257-2.318 2.968-2.395 2.908zm1.27-3.833a1.2 1.2 0 0 0 .406-.26c.113-.112.206-.241.275-.39.067-.148.102-.308.102-.479 0-.17-.035-.33-.102-.479a1.274 1.274 0 0 0-.68-.655 1.3 1.3 0 0 0-.5-.097 1.321 1.321 0 0 0-.904.363 1.185 1.185 0 0 0-.37.868 1.192 1.192 0 0 0 .37.869c.116.11.251.199.408.26.154.063.318.095.496.095.175 0 .341-.032.499-.095z"/></g></g><g><g><path fill="#616161" d="M2.139 20.953c.279 0 .537.046.777.14a1.892 1.892 0 0 1 1.054 1.009c.1.238.154.498.154.783 0 .303-.059.578-.169.827-.11.247-.262.459-.453.632-.19.174-.414.309-.67.406a2.323 2.323 0 0 1-.822.146c-.217 0-.424-.028-.62-.081a2.094 2.094 0 0 1-.993-.604 1.915 1.915 0 0 1-.329-.479l.384-.29a1.9 1.9 0 0 0 .655.676c.276.17.58.256.912.256.209 0 .406-.036.588-.107a1.4 1.4 0 0 0 .8-.774c.077-.182.115-.382.115-.599a1.356 1.356 0 0 0-.876-1.317 1.73 1.73 0 0 0-1.334.071 1.454 1.454 0 0 0-.577.511h-.54c.007-.034.022-.112.043-.231.023-.12.052-.263.086-.429.035-.165.071-.349.112-.55l.12-.612c.097-.48.202-1.012.316-1.6h2.933v.54H1.307l-.42 2.18c.15-.159.33-.283.544-.372.214-.088.45-.132.708-.132z"/></g><g><path fill="#616161" d="M8.532 21.953c-.077.25-.185.466-.321.646-.137.18-.301.318-.491.416-.192.096-.401.144-.63.144a1.39 1.39 0 0 1-.636-.144 1.427 1.427 0 0 1-.494-.416 2.029 2.029 0 0 1-.32-.646 2.789 2.789 0 0 1-.116-.838c0-.308.038-.588.117-.839a2.02 2.02 0 0 1 .319-.645c.137-.18.301-.319.494-.419.189-.1.402-.15.637-.15.228 0 .437.05.629.15.19.1.354.24.49.42.137.179.245.394.322.644.077.251.115.53.115.839 0 .308-.038.587-.115.838zm.543-1.878a2.577 2.577 0 0 0-.45-.82c-.19-.23-.417-.412-.68-.543a1.87 1.87 0 0 0-.854-.198c-.308 0-.595.066-.856.198a2.09 2.09 0 0 0-.68.542 2.6 2.6 0 0 0-.45.821c-.109.317-.162.664-.162 1.04s.053.723.163 1.04c.107.316.259.59.448.82.19.232.418.41.681.54.261.127.548.191.856.191.307 0 .592-.064.854-.192.263-.128.49-.307.68-.539.193-.23.34-.504.45-.82a3.23 3.23 0 0 0 .162-1.04c0-.376-.055-.723-.162-1.04z"/></g><g><path fill="#616161" d="M14.25 23.366c.121 0 .229-.026.329-.074a.897.897 0 0 0 .442-1.16.962.962 0 0 0-.185-.285.82.82 0 0 0-.585-.261.739.739 0 0 0-.33.072.883.883 0 0 0-.266.198.946.946 0 0 0-.18.28.929.929 0 0 0-.063.339c0 .251.081.462.243.633a.793.793 0 0 0 .596.258zm0 .34a1.28 1.28 0 0 1-.902-.355 1.207 1.207 0 0 1 0-1.744 1.31 1.31 0 0 1 .902-.356 1.298 1.298 0 0 1 .901.356 1.193 1.193 0 0 1 .275 1.352 1.177 1.177 0 0 1-.275.393 1.28 1.28 0 0 1-.9.354zm-2.873-4.122c.119 0 .23-.023.332-.073a.894.894 0 0 0 .513-.816.877.877 0 0 0-.255-.633.913.913 0 0 0-.275-.19.766.766 0 0 0-.641.006.896.896 0 0 0-.445 1.158.925.925 0 0 0 .45.48.75.75 0 0 0 .32.068zm-1.07 3.806l2.395-2.908 2.319-2.969.299.258-2.38 2.907-2.334 2.977zm1.07-3.472c-.178 0-.342-.032-.496-.095a1.258 1.258 0 0 1-.408-.26 1.17 1.17 0 0 1-.37-.868 1.177 1.177 0 0 1 .37-.868 1.295 1.295 0 0 1 .904-.364 1.288 1.288 0 0 1 1.18.753c.067.148.102.308.102.479 0 .17-.035.33-.102.478a1.295 1.295 0 0 1-.276.39 1.215 1.215 0 0 1-.405.26 1.326 1.326 0 0 1-.5.095z"/></g></g><g><g><path fill="#424242" d="M20.49 20.922v-.933h309.539v.933z"/></g><g><path fill="#424242" d="M20.49 60.825v-.933h309.539v.933z"/></g><g><path fill="#424242" d="M20.49 100.377v-.932h309.539v.932z"/></g><g><path fill="#424242" d="M20.49 139.93v-.933h309.539v.933z"/></g><g><path fill="#424242" d="M20.49 180.183v-.934h309.539v.934z"/></g></g></g><g><g><g><g><g><g><path fill="#00695c" d="M54.655 189.79l24.67-14.335.108-38.047-24.67 14.337z"/></g></g><g><g><path fill="#00685c" d="M54.763 151.745l24.67-14.337-26.488-15.292-24.67 14.336z"/></g></g><g><g><path fill="#00897b" d="M28.276 136.452l-.108 38.047 26.487 15.292.108-38.046z"/></g></g></g><g><g><g><path fill="#827717" d="M54.763 151.745l24.67-14.336.088-31.196-24.67 14.336z"/></g></g><g><g><path fill="#6b9a39" d="M54.852 120.549l24.67-14.336L53.033 90.92l-24.67 14.337z"/></g></g><g><g><path fill="#afb42b" d="M28.364 105.257l-.088 31.195 26.487 15.293.089-31.196z"/></g></g><g><g><path fill="#f57f17" d="M54.852 120.549l24.67-14.336.095-33.856-24.67 14.337z"/></g></g><g><g><path fill="#d8a527" d="M54.947 86.694l24.67-14.337L53.13 57.064 28.46 71.401z"/></g></g><g><g><path fill="#fbc02d" d="M28.46 71.401l-.096 33.856 26.488 15.292.095-33.855z"/></g></g></g><g><g><g><path fill="#e65100" d="M54.948 86.694l24.67-14.337.085-30.435-24.67 14.336z"/></g></g><g><g><path fill="#d36b00" d="M55.033 56.258l24.67-14.336L53.217 26.63l-24.67 14.336z"/></g></g><g><g><path fill="#f57c00" d="M28.546 40.966l-.086 30.435 26.487 15.293.086-30.436z"/></g></g></g><g><g><g><path fill="#bf360c" d="M55.033 56.258l24.67-14.336.075-26.63-24.67 14.336z"/></g></g><g><g><path fill="#ff7043" d="M55.109 29.628l24.67-14.336L53.29 0l-24.67 14.336z"/></g></g><g><g><path fill="#f4511e" d="M28.622 14.336l-.076 26.63 26.487 15.292.076-26.63z"/></g></g></g></g><g><g><g><g><path fill="#00695c" d="M117.66 189.79l24.669-14.335.108-38.047-24.67 14.337z"/></g></g><g><g><path fill="#00685c" d="M117.767 151.745l24.67-14.337-26.486-15.292-24.671 14.336z"/></g></g><g><g><path fill="#00897b" d="M91.28 136.452l-.108 38.047 26.487 15.292.108-38.046z"/></g></g></g><g><g><g><path fill="#827717" d="M117.767 151.745l24.67-14.336.088-31.196-24.67 14.336z"/></g></g><g><g><path fill="#6b9a39" d="M117.856 120.549l24.67-14.336-26.488-15.293-24.668 14.337z"/></g></g><g><g><path fill="#afb42b" d="M91.37 105.257l-.09 31.195 26.487 15.293.089-31.196z"/></g></g><g><g><path fill="#f57f17" d="M117.856 120.549l24.67-14.336.095-33.856-24.67 14.337z"/></g></g><g><g><path fill="#ffca28" d="M117.952 86.694l24.67-14.337-26.487-15.293-24.67 14.337z"/></g></g><g><g><path fill="#fbc02d" d="M91.464 71.401l-.094 33.856 26.486 15.292.096-33.855z"/></g></g></g></g><g><g><g><g><path fill="#00695c" d="M180.663 189.79l24.671-14.335.108-38.047-24.67 14.337z"/></g></g><g><g><path fill="#00685c" d="M180.772 151.745l24.67-14.337-26.487-15.292-24.67 14.336z"/></g></g><g><g><path fill="#00897b" d="M154.285 136.452l-.109 38.047 26.487 15.292.11-38.046z"/></g></g></g><g><g><path fill="#827717" d="M180.772 151.745l24.67-14.336.087-31.196-24.67 14.336z"/></g></g><g><g><path fill="#d4e157" d="M180.86 120.549l24.67-14.336-26.487-15.293-24.67 14.337z"/></g></g><g><g><path fill="#afb42b" d="M154.374 105.257l-.089 31.195 26.487 15.293.088-31.196z"/></g></g></g><g><g><g><path fill="#00695c" d="M243.669 189.79l24.67-14.335.107-38.047-24.67 14.337z"/></g></g><g><g><path fill="#26a69a" d="M243.776 151.745l24.67-14.337-26.487-15.292-24.67 14.336z"/></g></g><g><g><path fill="#00897b" d="M217.29 136.452l-.108 38.047 26.487 15.292.107-38.046z"/></g></g></g><g><g><g><g><path fill="#00695c" d="M306.673 189.79l24.67-14.335.107-38.047-24.67 14.337z"/></g></g><g><g><path fill="#00685c" d="M306.78 151.745l24.67-14.337-26.486-15.292-24.67 14.336z"/></g></g><g><g><path fill="#00897b" d="M280.293 136.452l-.107 38.047 26.487 15.292.107-38.046z"/></g></g></g><g><g><g><path fill="#827717" d="M306.78 151.745l24.67-14.336.089-31.196-24.67 14.336z"/></g></g><g><g><path fill="#6b9a39" d="M306.869 120.549l24.67-14.336L305.05 90.92l-24.668 14.337z"/></g></g><g><g><path fill="#afb42b" d="M280.383 105.257l-.09 31.195 26.487 15.293.089-31.196z"/></g></g><g><g><path fill="#f57f17" d="M306.869 120.549l24.67-14.336.096-33.856-24.67 14.337z"/></g></g><g><g><path fill="#d8a527" d="M306.965 86.694l24.67-14.337-26.486-15.293-24.67 14.337z"/></g></g><g><g><path fill="#fbc02d" d="M280.48 71.401l-.097 33.856 26.486 15.292.096-33.855z"/></g></g></g><g><g><g><path fill="#e65100" d="M306.965 86.694l24.67-14.337.087-30.435-24.67 14.336z"/></g></g><g><g><path fill="#ffa726" d="M307.052 56.258l24.67-14.336-26.487-15.292-24.67 14.336z"/></g></g><g><g><path fill="#f57c00" d="M280.565 40.966l-.086 30.435 26.486 15.293.087-30.436z"/></g></g></g></g></g><g><g><path d="M53.548 207.544l2.428-6.667 2.476 6.667zm4.389-10.86h-3.835l-6.999 17.966h3.848l1.483-4.08h7.182l1.568 4.08h3.946z"/></g><g><path d="M116.664 206.82c1.65 0 2.723.086 3.217.257.494.173.872.446 1.134.822.26.376.392.833.392 1.373 0 .637-.17 1.145-.51 1.525-.338.38-.778.619-1.317.718-.351.073-1.18.108-2.487.108h-3.358v-4.802zm-.847-7.145c1.709 0 2.742.02 3.102.062.605.073 1.06.284 1.366.63.306.348.46.8.46 1.355 0 .58-.177 1.049-.533 1.404-.356.354-.844.569-1.464.643-.343.04-1.222.062-2.636.062h-2.377v-4.156zm-5.709 14.975h6.114c2.312-.015 3.771-.057 4.375-.121.965-.106 1.776-.39 2.433-.852a4.78 4.78 0 0 0 1.555-1.85c.381-.771.572-1.567.572-2.384 0-1.038-.296-1.94-.883-2.709-.588-.768-1.43-1.311-2.524-1.63a4.199 4.199 0 0 0 1.843-1.58 4.171 4.171 0 0 0 .681-2.316 4.08 4.08 0 0 0-.55-2.102 4.635 4.635 0 0 0-1.38-1.502 4.688 4.688 0 0 0-1.875-.742c-.698-.117-1.758-.177-3.18-.177h-7.18z"/></g><g><path d="M185.244 208.046l3.518 1.116c-.54 1.96-1.435 3.416-2.69 4.368-1.255.951-2.846 1.428-4.773 1.428-2.386 0-4.348-.816-5.882-2.446-1.536-1.63-2.304-3.858-2.304-6.684 0-2.99.773-5.314 2.316-6.968 1.544-1.654 3.574-2.482 6.09-2.482 2.199 0 3.984.65 5.356 1.949.816.768 1.43 1.872 1.837 3.31l-3.59.858c-.213-.932-.656-1.667-1.33-2.206-.673-.54-1.493-.81-2.458-.81-1.33 0-2.411.478-3.24 1.435-.829.956-1.243 2.503-1.243 4.645 0 2.27.407 3.888 1.225 4.852.816.964 1.878 1.447 3.186 1.447.963 0 1.793-.306 2.488-.92.694-.614 1.192-1.577 1.494-2.892z"/></g><g><path d="M241.375 199.724c1.479 0 2.471.058 2.976.173.68.146 1.238.428 1.68.844.442.418.785.997 1.03 1.741.244.744.368 1.81.368 3.198 0 1.39-.124 2.486-.369 3.291-.244.804-.561 1.382-.95 1.734-.388.35-.876.6-1.463.748-.45.114-1.182.17-2.194.17h-2.709v-11.899zm-5.259 14.926h6.826c1.34 0 2.41-.125 3.213-.38 1.068-.342 1.919-.82 2.548-1.432.833-.81 1.475-1.868 1.924-3.175.367-1.069.552-2.345.552-3.823 0-1.683-.197-3.098-.59-4.247-.39-1.147-.963-2.118-1.715-2.91a6.004 6.004 0 0 0-2.707-1.655c-.785-.229-1.926-.343-3.42-.343h-6.63z"/></g><g><path d="M299.122 214.65v-17.965h13.32v3.04h-9.694v3.982h9.02v3.027h-9.02v4.89h10.038v3.026z"/></g></g></g></g></g></svg>