<svg xmlns="http://www.w3.org/2000/svg" width="381" height="77" viewBox="0 0 381 77"><g><g><g><g><path fill="#ccc" fill-opacity=".5" d="M17.796 68.693c0-9.22-.748-10-9.703-10-4.542 0-8.204-3.77-8.204-8.437 0-4.673 3.662-8.443 8.204-8.443 4.542 0 8.198 3.77 8.198 8.443 0 9.217.757 9.997 9.7 9.997 4.548 0 8.208 3.77 8.208 8.443 0 4.67-3.66 8.434-8.207 8.434zm4.801-22.062v.003zm8.196-8.443c4.538 0 8.2 3.776 8.2 8.446 0 4.673-3.662 8.44-8.2 8.44-4.53 0-8.195-3.767-8.196-8.441.001-4.67 3.669-8.445 8.196-8.445z"/></g></g><g><path fill="#ccc" fill-opacity=".5" d="M56.005 49.781c0-9.229-.751-10.006-9.707-10.006-4.538 0-8.19-3.767-8.19-8.443 0-4.67 3.652-8.434 8.19-8.434 4.542 0 8.199 3.764 8.199 8.434 0 9.223.757 10.003 9.703 10.003 4.548 0 8.202 3.768 8.202 8.443 0 4.67-3.654 8.437-8.202 8.437-4.536 0-8.195-3.767-8.195-8.434"/></g><g><path fill="#ccc" d="M3.403 27.748c0 4.679 3.653 8.443 8.19 8.443 4.538 0 8.195-3.764 8.195-8.443 0-4.67-3.657-8.443-8.196-8.443-4.536 0-8.19 3.773-8.19 8.443zM47.41 75.384c4.535 0 8.192-3.762 8.192-8.443 0-4.679-3.657-8.435-8.192-8.435-4.542 0-8.199 3.759-8.199 8.435zm12.92-48.5c0 4.678 3.657 8.434 8.199 8.434 4.541 0 8.186-3.753 8.186-8.438 0-4.67-3.645-8.442-8.186-8.442-8.956 0-9.721-.775-9.721-9.986C58.809 3.767 55.158 0 50.625 0c-4.542 0-8.202 3.764-8.202 8.452 0 4.67 3.66 8.43 8.202 8.43 8.95 0 9.706.781 9.706 9.998z"/></g><g><path fill="#ccc" fill-opacity=".5" d="M18.929 10.533c0-4.678 3.662-8.443 8.192-8.443 4.542 0 8.199 3.765 8.199 8.443 0 4.679-3.657 8.446-8.199 8.446-4.53 0-8.192-3.767-8.192-8.446"/></g><g><path fill="#ccc" d="M378.393 32.502c-2.306-1.578-4.17-2.634-5.593-3.173a12.105 12.105 0 0 0-4.276-.807c-1.535 0-2.85.356-3.948 1.06-1.095.708-1.642 1.764-1.642 3.174 0 1.921 2.067 4.18 6.207 6.774 4.137 2.597 7.124 4.688 8.964 6.266 1.834 1.583 2.751 4.18 2.751 7.793 0 4.123-1.377 7.182-4.122 9.185-2.749 2.006-6.353 3.008-10.81 3.008-2.254 0-4.149-.157-5.686-.466a38.072 38.072 0 0 1-4.786-1.31v-7.878a32.049 32.049 0 0 0 5.164 2.964 13.596 13.596 0 0 0 5.736 1.269c2.314 0 4.02-.478 5.124-1.441 1.103-.958 1.653-2.172 1.653-3.64 0-2.031-2.949-4.838-8.841-8.422-5.893-3.587-8.836-7.467-8.836-11.645 0-3.33 1.12-6.094 3.37-8.298 2.246-2.2 5.698-3.301 10.362-3.301 1.971 0 3.52.128 4.644.378 1.12.257 2.644.664 4.565 1.229v7.281zm-66.766-7.956h8.303v9.57c1.427-2.825 3.153-5.28 5.182-7.367 2.024-2.093 4.932-3.135 8.714-3.135 3.235 0 5.686 1.159 7.36 3.47 1.671 2.318 2.51 5.08 2.51 8.298V64.85h-8.307V39.618c0-3.049-.329-5.421-.99-7.116-.654-1.691-1.97-2.538-3.944-2.538-3.564 0-6.207 2.102-7.934 6.306-1.729 4.206-2.59 8.175-2.59 11.901v16.682h-8.304v-40.31zM289.015 6.422h8.96v8.47h-8.96zm.329 58.428V24.546h8.309V64.85zm-28.037-35.902h-6.824v-4.402h6.824v-3.814c0-4.623.99-8.32 2.961-11.09 1.974-2.765 5.945-4.151 11.92-4.151 1.81 0 3.237.073 4.279.212 1.04.143 2.381.385 4.026.72v5.842a34.815 34.815 0 0 0-3.453-1.31 12.78 12.78 0 0 0-3.863-.553c-3.016 0-5.03.862-6.044 2.586-1.016 1.717-1.522 3.965-1.522 6.73v4.828h11.1v4.402h-11.1V64.85h-8.304V28.948zm-48.18 15.75c0-14.056 5.753-21.084 17.265-21.084 5.7 0 10.015 1.79 12.952 5.374 2.926 3.587 4.396 8.822 4.396 15.71 0 6.83-1.455 12.053-4.355 15.663-2.905 3.616-7.238 5.42-12.993 5.42-5.704 0-10.007-1.804-12.91-5.42-2.908-3.61-4.357-8.833-4.357-15.663zm17.265 17.526c3.29 0 5.496-1.706 6.617-5.124 1.124-3.412 1.689-7.549 1.689-12.402 0-6.55-.728-11.107-2.18-13.675-1.454-2.567-3.494-3.854-6.126-3.854-3.235 0-5.415 1.709-6.536 5.124-1.124 3.415-1.689 7.549-1.689 12.402 0 6.55.728 11.107 2.18 13.678 1.454 2.57 3.465 3.851 6.045 3.851zm-36.424-37.678V34.79c1.918-3.727 3.74-6.522 5.467-8.385 1.727-1.86 4.178-2.792 7.36-2.792v8.888c-4.221 0-7.415 1.03-9.578 3.092-2.17 2.061-3.25 5.66-3.25 10.798V64.85h-8.305V24.546zM163.873 55.28c-1.814 3.613-3.863 6.265-6.149 7.96a12.615 12.615 0 0 1-7.712 2.54c-3.243 0-5.706-1.155-7.383-3.472-1.68-2.312-2.515-5.078-2.515-8.298v-29.46h8.303v25.23c0 3.048.326 5.418.987 7.113.655 1.694 1.974 2.538 3.945 2.538 3.563 0 6.21-2.099 7.936-6.306 1.727-4.207 2.591-8.172 2.591-11.898v-16.68h8.303v40.305h-8.306v-9.57zm-35.023 8.213a30.016 30.016 0 0 1-5.346 1.738c-1.703.366-3.729.553-6.084.553-5.811 0-10.528-1.893-14.144-5.677-3.615-3.785-5.426-9.512-5.426-17.189 0-5.983 1.316-10.7 3.947-14.14 2.632-3.442 6.88-5.165 12.746-5.165 5.698 0 9.631 1.566 11.797 4.699 2.166 3.13 3.25 7.069 3.25 11.811h-23.437c0 5.194 1.208 10.021 3.619 14.481 2.413 4.46 6.277 6.688 11.593 6.688 2.59.01 5.15-.569 7.485-1.692zm-7.404-27.265c0-2.256-.518-4.332-1.56-6.225-1.043-1.89-2.935-2.835-5.675-2.835-2.794 0-4.797 1.03-6.003 3.092-1.202 2.06-1.805 4.052-1.805 5.968z"/></g></g></g></svg>